# Blender 3.5.0
# www.blender.org
o enemySwitcherLv8
v 0.499499 -0.000000 -0.500500
v 0.499499 0.000000 0.498500
v -0.499499 0.000000 0.498500
v -0.499500 -0.909091 -0.500500
v -0.441082 -1.000000 -0.442082
v 0.441081 -1.000000 -0.442082
v 0.499499 -0.909091 -0.500500
v 0.441081 -1.000000 0.440082
v 0.499499 -0.909091 0.498500
v -0.499500 -0.909091 0.498500
v -0.441082 -1.000000 0.440082
v -0.499499 -0.000000 -0.500500
v -0.499499 -1.909091 -0.500500
v -0.441080 -2.000000 -0.442081
v 0.441082 -2.000000 -0.442081
v 0.499499 -1.909091 -0.500500
v 0.441082 -2.000000 0.440081
v 0.499499 -1.909091 0.498500
v -0.499499 -1.909091 0.498500
v -0.441080 -2.000000 0.440081
v 0.499500 -1.090909 -0.500500
v 0.441082 -1.000000 -0.442081
v -0.441080 -1.000000 -0.442081
v -0.499499 -1.090909 -0.500500
v -0.441080 -1.000000 0.440081
v -0.499499 -1.090909 0.498500
v 0.499500 -1.090909 0.498500
v 0.441082 -1.000000 0.440081
v -0.499499 -2.909091 -0.500500
v -0.441080 -3.000000 -0.442081
v 0.441082 -3.000000 -0.442081
v 0.499499 -2.909091 -0.500500
v 0.441082 -3.000000 0.440081
v 0.499499 -2.909091 0.498500
v -0.499499 -2.909091 0.498500
v -0.441080 -3.000000 0.440081
v 0.499500 -2.090909 -0.500500
v 0.441082 -2.000000 -0.442081
v -0.441080 -2.000000 -0.442081
v -0.499499 -2.090909 -0.500500
v -0.441080 -2.000000 0.440081
v -0.499499 -2.090909 0.498500
v 0.499500 -2.090909 0.498500
v 0.441082 -2.000000 0.440081
v -0.499499 -3.909091 -0.500500
v -0.441080 -4.000000 -0.442081
v 0.441082 -4.000000 -0.442081
v 0.499499 -3.909091 -0.500500
v 0.441082 -4.000000 0.440082
v 0.499499 -3.909091 0.498500
v -0.499499 -3.909091 0.498500
v -0.441080 -4.000000 0.440082
v 0.499500 -3.090909 -0.500500
v 0.441082 -3.000000 -0.442081
v -0.441080 -3.000000 -0.442081
v -0.499499 -3.090909 -0.500500
v -0.441080 -3.000000 0.440081
v -0.499499 -3.090909 0.498500
v 0.499500 -3.090909 0.498500
v 0.441082 -3.000000 0.440081
vn -0.0000 1.0000 -0.0000
vn -0.0000 -0.5406 -0.8413
vn 0.8413 -0.5406 -0.0000
vn -0.8413 -0.5406 -0.0000
vn -1.0000 -0.0000 -0.0000
vn -0.0000 -0.0000 -1.0000
vn 1.0000 -0.0000 -0.0000
vn -0.0000 0.5406 -0.8413
vn -0.8413 0.5406 -0.0000
vn 0.8413 0.5406 -0.0000
vn -0.0000 0.5406 0.8413
vt 0.691113 0.975586
vt 0.975586 0.691113
vt 0.975681 0.641265
vt 0.975586 0.975586
vt 0.690947 0.641265
vt 0.975586 0.691113
vt 0.691113 0.975586
vt 0.975681 0.641265
vt 0.565710 0.611638
vt 0.548133 0.611638
vt 0.690947 0.357843
vt 0.565710 0.605908
vt 0.548133 0.605908
vt 0.548133 0.605908
vt 0.565710 0.605908
vt 0.548133 0.611638
vt 0.565710 0.611638
vt 0.690947 0.641265
vt 0.975681 0.357843
vt 0.548133 0.605908
vt 0.548133 0.611638
vt 0.690947 0.357843
vt 0.565710 0.611638
vt 0.975681 0.357843
vt 0.565710 0.605908
vt 0.975586 0.975586
vt 0.690947 0.641265
vt 0.975681 0.357843
vt 0.565710 0.611638
vt 0.548133 0.611638
vt 0.690947 0.641265
vt 0.975681 0.641265
vt 0.565710 0.605908
vt 0.548133 0.605908
vt 0.548133 0.605908
vt 0.565710 0.605908
vt 0.548133 0.611638
vt 0.565710 0.611638
vt 0.690947 0.641265
vt 0.975681 0.641265
vt 0.548133 0.605908
vt 0.548133 0.611638
vt 0.975681 0.641265
vt 0.565710 0.611638
vt 0.690947 0.641265
vt 0.565710 0.605908
vt 0.512942 0.640568
vt 0.476409 0.640568
vt 0.690947 0.357843
vt 0.975681 0.357843
vt 0.512942 0.619330
vt 0.476409 0.619330
vt 0.476409 0.619330
vt 0.512942 0.619330
vt 0.476409 0.640568
vt 0.512942 0.640568
vt 0.690947 0.357843
vt 0.975681 0.357843
vt 0.476409 0.619330
vt 0.512942 0.619330
vt 0.476409 0.640568
vt 0.690947 0.357843
vt 0.512942 0.640568
vt 0.512942 0.640568
vt 0.975681 0.357843
vt 0.476409 0.640568
vt 0.512942 0.619330
vt 0.476409 0.619330
vt 0.565710 0.611638
vt 0.548133 0.611638
vt 0.690947 0.641265
vt 0.975681 0.641265
vt 0.565710 0.605908
vt 0.548133 0.605908
vt 0.548133 0.605908
vt 0.565710 0.605908
vt 0.548133 0.611638
vt 0.565710 0.611638
vt 0.690947 0.641265
vt 0.975681 0.641265
vt 0.548133 0.605908
vt 0.548133 0.611638
vt 0.975681 0.641265
vt 0.565710 0.611638
vt 0.690947 0.641265
vt 0.565710 0.605908
vt 0.512942 0.640568
vt 0.476409 0.640568
vt 0.690947 0.357843
vt 0.975681 0.357843
vt 0.512942 0.619330
vt 0.476409 0.619330
vt 0.476409 0.619330
vt 0.512942 0.619330
vt 0.476409 0.640568
vt 0.512942 0.640568
vt 0.690947 0.357843
vt 0.975681 0.357843
vt 0.476409 0.619330
vt 0.512942 0.619330
vt 0.476409 0.640568
vt 0.690947 0.357843
vt 0.512942 0.640568
vt 0.512942 0.640568
vt 0.975681 0.357843
vt 0.476409 0.640568
vt 0.512942 0.619330
vt 0.476409 0.619330
vt 0.565710 0.611638
vt 0.548133 0.611638
vt 0.690947 0.641265
vt 0.975681 0.641265
vt 0.565710 0.605908
vt 0.548133 0.605908
vt 0.548133 0.605908
vt 0.565710 0.605908
vt 0.548133 0.611638
vt 0.565710 0.611638
vt 0.690947 0.641265
vt 0.975681 0.641265
vt 0.548133 0.605908
vt 0.548133 0.611638
vt 0.975681 0.641265
vt 0.565710 0.611638
vt 0.690947 0.641265
vt 0.565710 0.605908
vt 0.512942 0.640568
vt 0.476409 0.640568
vt 0.690947 0.357843
vt 0.975681 0.357843
vt 0.512942 0.619330
vt 0.476409 0.619330
vt 0.476409 0.619330
vt 0.512942 0.619330
vt 0.476409 0.640568
vt 0.512942 0.640568
vt 0.690947 0.357843
vt 0.975681 0.357843
vt 0.476409 0.619330
vt 0.512942 0.619330
vt 0.476409 0.640568
vt 0.690947 0.357843
vt 0.512942 0.640568
vt 0.512942 0.640568
vt 0.975681 0.357843
vt 0.476409 0.640568
vt 0.512942 0.619330
vt 0.476409 0.619330
s 1
f 1/1/1 3/6/1 2/4/1
f 4/9/2 6/14/2 5/12/2
f 4/9/2 7/16/2 6/14/2
f 8/20/3 7/17/3 9/21/3
f 8/20/3 6/15/3 7/17/3
f 10/23/4 5/13/4 11/25/4
f 10/23/4 4/10/4 5/13/4
f 1/2/1 12/26/1 3/7/1
f 12/27/5 10/24/5 3/8/5
f 12/27/5 4/11/5 10/24/5
f 7/18/6 12/28/6 1/3/6
f 7/18/6 4/11/6 12/28/6
f 2/5/7 7/19/7 1/3/7
f 2/5/7 9/22/7 7/19/7
f 13/29/2 15/35/2 14/33/2
f 13/29/2 16/37/2 15/35/2
f 17/41/3 16/38/3 18/42/3
f 17/41/3 15/36/3 16/38/3
f 19/44/4 14/34/4 20/46/4
f 19/44/4 13/30/4 14/34/4
f 21/47/8 23/53/8 22/51/8
f 21/47/8 24/55/8 23/53/8
f 25/59/9 24/56/9 26/61/9
f 25/59/9 23/54/9 24/56/9
f 27/64/10 22/52/10 28/67/10
f 27/64/10 21/48/10 22/52/10
f 16/39/7 27/65/7 18/43/7
f 16/39/7 21/49/7 27/65/7
f 24/57/6 16/40/6 13/31/6
f 24/57/6 21/50/6 16/40/6
f 19/45/5 24/58/5 13/32/5
f 19/45/5 26/62/5 24/58/5
f 27/66/11 25/60/11 26/63/11
f 27/66/11 28/68/11 25/60/11
f 29/69/2 31/75/2 30/73/2
f 29/69/2 32/77/2 31/75/2
f 33/81/3 32/78/3 34/82/3
f 33/81/3 31/76/3 32/78/3
f 35/84/4 30/74/4 36/86/4
f 35/84/4 29/70/4 30/74/4
f 37/87/8 39/93/8 38/91/8
f 37/87/8 40/95/8 39/93/8
f 41/99/9 40/96/9 42/101/9
f 41/99/9 39/94/9 40/96/9
f 43/104/10 38/92/10 44/107/10
f 43/104/10 37/88/10 38/92/10
f 32/79/7 43/105/7 34/83/7
f 32/79/7 37/89/7 43/105/7
f 40/97/6 32/80/6 29/71/6
f 40/97/6 37/90/6 32/80/6
f 35/85/5 40/98/5 29/72/5
f 35/85/5 42/102/5 40/98/5
f 43/106/11 41/100/11 42/103/11
f 43/106/11 44/108/11 41/100/11
f 45/109/2 47/115/2 46/113/2
f 45/109/2 48/117/2 47/115/2
f 49/121/3 48/118/3 50/122/3
f 49/121/3 47/116/3 48/118/3
f 51/124/4 46/114/4 52/126/4
f 51/124/4 45/110/4 46/114/4
f 53/127/8 55/133/8 54/131/8
f 53/127/8 56/135/8 55/133/8
f 57/139/9 56/136/9 58/141/9
f 57/139/9 55/134/9 56/136/9
f 59/144/10 54/132/10 60/147/10
f 59/144/10 53/128/10 54/132/10
f 48/119/7 59/145/7 50/123/7
f 48/119/7 53/129/7 59/145/7
f 56/137/6 48/120/6 45/111/6
f 56/137/6 53/130/6 48/120/6
f 51/125/5 56/138/5 45/112/5
f 51/125/5 58/142/5 56/138/5
f 59/146/11 57/140/11 58/143/11
f 59/146/11 60/148/11 57/140/11
