o state1
v -0.400000 0.000000 -0.346687
v -0.346687 0.000000 -0.400000
v -0.213273 0.600000 -0.159960
v -0.159960 0.600000 -0.213273
v 0.346687 0.000000 -0.400000
v 0.400000 0.000000 -0.346687
v 0.159960 0.600000 -0.213273
v 0.213273 0.600000 -0.159960
v 0.400000 -0.000000 0.346687
v 0.346687 -0.000000 0.400000
v 0.213273 0.600000 0.159960
v 0.159960 0.600000 0.213273
v -0.346687 -0.000000 0.400000
v -0.400000 -0.000000 0.346687
v -0.159960 0.600000 0.213273
v -0.213273 0.600000 0.159960
v 0.100000 0.949999 0.100000
v 0.100000 0.849999 0.100000
v -0.100000 0.949999 0.100000
v -0.100000 0.849999 0.100000
v 0.100000 0.849999 0.325003
v 0.075002 0.849999 0.350000
v 0.100000 0.949999 0.325003
v 0.075002 0.949999 0.350000
v -0.075002 0.849999 0.350000
v -0.100000 0.849999 0.325003
v -0.075002 0.949999 0.350000
v -0.100000 0.949999 0.325003
v 0.075000 0.874999 0.100000
v 0.075000 0.924999 0.100000
v -0.075000 0.874999 0.100000
v -0.075000 0.924999 0.100000
v 0.075000 0.875000 -0.029311
v 0.075000 0.925000 -0.029311
v -0.075000 0.875000 -0.029311
v -0.075000 0.925000 -0.029311
v 0.085000 0.865000 -0.029311
v 0.085000 0.935000 -0.029311
v -0.085000 0.865000 -0.029311
v -0.085000 0.935000 -0.029311
v 0.085000 0.865000 -0.099971
v 0.085000 0.935000 -0.099971
v -0.085000 0.865000 -0.099971
v -0.085000 0.935000 -0.099971
v 0.100000 0.950000 -0.100000
v 0.100000 0.850000 -0.100000
v 0.100000 0.949999 0.100000
v 0.100000 0.849999 0.100000
v 0.325002 0.850000 -0.100000
v 0.350000 0.850000 -0.075002
v 0.325002 0.950000 -0.100000
v 0.350000 0.950000 -0.075002
v 0.350000 0.849999 0.075003
v 0.325002 0.849999 0.100000
v 0.350000 0.949999 0.075003
v 0.325002 0.949999 0.100000
v 0.100000 0.875000 -0.075000
v 0.100000 0.925000 -0.075000
v 0.100000 0.874999 0.075000
v 0.100000 0.924999 0.075000
v -0.029312 0.875000 -0.075000
v -0.029312 0.925000 -0.075000
v -0.029312 0.874999 0.075000
v -0.029312 0.924999 0.075000
v -0.029312 0.865000 -0.085000
v -0.029312 0.935000 -0.085000
v -0.029312 0.864999 0.085000
v -0.029312 0.934999 0.085000
v -0.099972 0.865000 -0.085000
v -0.099972 0.935000 -0.085000
v -0.099972 0.864999 0.085000
v -0.099972 0.934999 0.085000
v -0.100000 0.950000 -0.100000
v -0.100000 0.850000 -0.100000
v 0.100000 0.950000 -0.100000
v 0.100000 0.850000 -0.100000
v -0.100000 0.850000 -0.325002
v -0.075002 0.850000 -0.350000
v -0.100000 0.950000 -0.325002
v -0.075002 0.950000 -0.350000
v 0.075002 0.850000 -0.350000
v 0.100000 0.850000 -0.325002
v 0.075002 0.950000 -0.350000
v 0.100000 0.950000 -0.325002
v -0.075000 0.875000 -0.100000
v -0.075000 0.925000 -0.100000
v 0.075000 0.875000 -0.100000
v 0.075000 0.925000 -0.100000
v -0.075000 0.874999 0.029312
v -0.075000 0.924999 0.029312
v 0.075000 0.874999 0.029312
v 0.075000 0.924999 0.029312
v -0.085000 0.864999 0.029312
v -0.085000 0.934999 0.029312
v 0.085000 0.864999 0.029312
v 0.085000 0.934999 0.029312
v -0.085000 0.864999 0.099972
v -0.085000 0.934999 0.099972
v 0.085000 0.864999 0.099972
v 0.085000 0.934999 0.099972
v -0.100000 0.949999 0.100000
v -0.100000 0.849999 0.100000
v -0.100000 0.950000 -0.100000
v -0.100000 0.850000 -0.100000
v -0.325002 0.849999 0.100000
v -0.350000 0.849999 0.075003
v -0.325002 0.949999 0.100000
v -0.350000 0.949999 0.075003
v -0.350000 0.850000 -0.075002
v -0.325002 0.850000 -0.100000
v -0.350000 0.950000 -0.075002
v -0.325002 0.950000 -0.100000
v -0.100000 0.874999 0.075000
v -0.100000 0.924999 0.075000
v -0.100000 0.875000 -0.075000
v -0.100000 0.925000 -0.075000
v 0.029312 0.874999 0.075000
v 0.029312 0.924999 0.075000
v 0.029312 0.875000 -0.075000
v 0.029312 0.925000 -0.075000
v 0.029312 0.864999 0.085000
v 0.029312 0.934999 0.085000
v 0.029312 0.865000 -0.085000
v 0.029312 0.935000 -0.085000
v 0.099972 0.864999 0.085000
v 0.099972 0.934999 0.085000
v 0.099972 0.865000 -0.085000
v 0.099972 0.935000 -0.085000
v 0.069291 0.650000 -0.028701
v 0.028701 0.650000 -0.069290
v -0.028701 0.650000 -0.069290
v -0.069291 0.650000 -0.028701
v -0.069291 0.650000 0.028702
v -0.028701 0.650000 0.069291
v 0.028701 0.650000 0.069291
v 0.069291 0.650000 0.028702
v 0.069291 0.750000 -0.028701
v 0.028701 0.750000 -0.069290
v -0.028701 0.750000 -0.069290
v -0.069291 0.750000 -0.028701
v -0.069291 0.750000 0.028702
v -0.028701 0.750000 0.069291
v 0.028701 0.750000 0.069291
v 0.069291 0.750000 0.028702
v 0.122175 0.600000 -0.050606
v 0.050607 0.600000 -0.122175
v -0.050607 0.600000 -0.122175
v -0.122175 0.600000 -0.050606
v -0.122175 0.600000 0.050607
v -0.050607 0.600000 0.122176
v 0.050607 0.600000 0.122176
v 0.122175 0.600000 0.050607
v 0.122175 0.650000 -0.050606
v 0.050607 0.650000 -0.122175
v -0.050607 0.650000 -0.122175
v -0.122175 0.650000 -0.050606
v -0.122175 0.650000 0.050607
v -0.050607 0.650000 0.122176
v 0.050607 0.650000 0.122176
v 0.122175 0.650000 0.050607
v 0.122175 0.750000 -0.050606
v 0.050607 0.750000 -0.122175
v -0.050607 0.750000 -0.122175
v -0.122175 0.750000 -0.050606
v -0.122175 0.750000 0.050607
v -0.050607 0.750000 0.122176
v 0.050607 0.750000 0.122176
v 0.122175 0.750000 0.050607
v 0.122175 0.961393 -0.050606
v 0.050607 0.961393 -0.122175
v -0.050607 0.961393 -0.122175
v -0.122175 0.961393 -0.050606
v -0.122175 0.961393 0.050607
v -0.050607 0.961393 0.122176
v 0.050607 0.961393 0.122176
v 0.122175 0.961393 0.050607
vn -0.9548 0.2972 -0.0000
vn -0.0000 0.2972 -0.9548
vn 0.9548 0.2972 -0.0000
vn -0.6472 0.4028 -0.6472
vn 0.6472 0.4028 -0.6472
vn 0.6472 0.4028 0.6472
vn -0.6472 0.4028 0.6472
vn -0.0000 1.0000 -0.0000
vn -0.0000 -0.0000 1.0000
vn 1.0000 -0.0000 -0.0000
vn -1.0000 -0.0000 -0.0000
vn 0.7071 -0.0000 0.7071
vn -0.7071 -0.0000 0.7071
vn -0.0000 -0.0000 -1.0000
vn 0.7071 -0.0000 -0.7071
vn -0.7071 -0.0000 -0.7071
vn 0.3827 -0.0000 -0.9239
vn 0.9239 -0.0000 -0.3827
vn -0.3827 -0.0000 -0.9239
vn -0.9239 -0.0000 -0.3827
vn -0.9239 -0.0000 0.3827
vn -0.3827 -0.0000 0.9239
vn 0.3827 -0.0000 0.9239
vn 0.9239 -0.0000 0.3827
vt 0.274062 0.022782
vt 0.224877 0.022782
vt 0.274062 0.224486
vt 0.773770 0.339831
vt 0.224877 0.224486
vt 0.773770 0.350297
vt 0.024414 0.022782
vt 0.224877 0.022782
vt 0.274062 0.022782
vt 0.024414 0.224486
vt 0.224877 0.224486
vt 0.975586 0.350297
vt 0.274062 0.224486
vt 0.975586 0.339831
vt 0.429509 0.022782
vt 0.475586 0.022782
vt 0.429509 0.224486
vt 0.975586 0.284880
vt 0.475586 0.224486
vt 0.975586 0.274414
vt 0.475586 0.022782
vt 0.429509 0.022782
vt 0.475586 0.224486
vt 0.773770 0.274414
vt 0.429509 0.224486
vt 0.773770 0.284880
vt 0.399450 0.399414
vt 0.349849 0.274414
vt 0.281141 0.600586
vt 0.399450 0.475586
vt 0.343859 0.600586
vt 0.475550 0.399414
vt 0.349849 0.350586
vt 0.343859 0.600586
vt 0.475550 0.475586
vt 0.281141 0.600586
vt 0.425273 0.475586
vt 0.429327 0.475586
vt 0.425273 0.399414
vt 0.337968 0.274414
vt 0.429327 0.399414
vt 0.274308 0.274414
vt 0.446401 0.475586
vt 0.450394 0.475586
vt 0.446401 0.399414
vt 0.274308 0.350586
vt 0.450394 0.399414
vt 0.337968 0.350586
vt 0.343859 0.524902
vt 0.350550 0.524658
vt 0.281141 0.524902
vt 0.350550 0.600342
vt 0.475271 0.600586
vt 0.281141 0.524902
vt 0.350550 0.600342
vt 0.343859 0.524902
vt 0.350550 0.524658
vt 0.475271 0.524414
vt 0.274450 0.524658
vt 0.343859 0.600586
vt 0.274450 0.600342
vt 0.399729 0.600586
vt 0.281141 0.600586
vt 0.274450 0.600342
vt 0.281141 0.600586
vt 0.274450 0.524658
vt 0.399729 0.524414
vt 0.343859 0.600586
vt 0.343859 0.524902
vt 0.350550 0.524658
vt 0.281141 0.524902
vt 0.350550 0.600342
vt 0.475271 0.600586
vt 0.281141 0.524902
vt 0.350550 0.600342
vt 0.343859 0.524902
vt 0.350550 0.524658
vt 0.475271 0.524414
vt 0.274450 0.524658
vt 0.274450 0.600342
vt 0.399729 0.600586
vt 0.274450 0.600342
vt 0.274450 0.524658
vt 0.399729 0.524414
vt 0.399450 0.399414
vt 0.349849 0.274414
vt 0.281141 0.600586
vt 0.399450 0.475586
vt 0.343859 0.600586
vt 0.475550 0.399414
vt 0.349849 0.350586
vt 0.343859 0.600586
vt 0.475550 0.475586
vt 0.281141 0.600586
vt 0.425273 0.475586
vt 0.429327 0.475586
vt 0.425273 0.399414
vt 0.337968 0.274414
vt 0.429327 0.399414
vt 0.274308 0.274414
vt 0.446401 0.475586
vt 0.450394 0.475586
vt 0.446401 0.399414
vt 0.274308 0.350586
vt 0.450394 0.399414
vt 0.337968 0.350586
vt 0.343859 0.524902
vt 0.350550 0.524658
vt 0.281141 0.524902
vt 0.350550 0.600342
vt 0.475271 0.600586
vt 0.281141 0.524902
vt 0.350550 0.600342
vt 0.343859 0.524902
vt 0.350550 0.524658
vt 0.475271 0.524414
vt 0.274450 0.524658
vt 0.343859 0.600586
vt 0.274450 0.600342
vt 0.399729 0.600586
vt 0.281141 0.600586
vt 0.274450 0.600342
vt 0.281141 0.600586
vt 0.274450 0.524658
vt 0.399729 0.524414
vt 0.343859 0.600586
vt 0.343859 0.524902
vt 0.350550 0.524658
vt 0.281141 0.524902
vt 0.350550 0.600342
vt 0.475271 0.600586
vt 0.281141 0.524902
vt 0.350550 0.600342
vt 0.343859 0.524902
vt 0.350550 0.524658
vt 0.475271 0.524414
vt 0.274450 0.524658
vt 0.274450 0.600342
vt 0.399729 0.600586
vt 0.274450 0.600342
vt 0.274450 0.524658
vt 0.399729 0.524414
vt 0.399450 0.399414
vt 0.349849 0.274414
vt 0.281141 0.600586
vt 0.399450 0.475586
vt 0.343859 0.600586
vt 0.475550 0.399414
vt 0.349849 0.350586
vt 0.343859 0.600586
vt 0.475550 0.475586
vt 0.281141 0.600586
vt 0.425273 0.475586
vt 0.429327 0.475586
vt 0.425273 0.399414
vt 0.337968 0.274414
vt 0.429327 0.399414
vt 0.274308 0.274414
vt 0.446401 0.475586
vt 0.450394 0.475586
vt 0.446401 0.399414
vt 0.274308 0.350586
vt 0.450394 0.399414
vt 0.337968 0.350586
vt 0.343859 0.524902
vt 0.350550 0.524658
vt 0.281141 0.524902
vt 0.350550 0.600342
vt 0.475271 0.600586
vt 0.281141 0.524902
vt 0.350550 0.600342
vt 0.343859 0.524902
vt 0.350550 0.524658
vt 0.475271 0.524414
vt 0.274450 0.524658
vt 0.343859 0.600586
vt 0.274450 0.600342
vt 0.399729 0.600586
vt 0.281141 0.600586
vt 0.274450 0.600342
vt 0.281141 0.600586
vt 0.274450 0.524658
vt 0.399729 0.524414
vt 0.343859 0.600586
vt 0.343859 0.524902
vt 0.350550 0.524658
vt 0.281141 0.524902
vt 0.350550 0.600342
vt 0.475271 0.600586
vt 0.281141 0.524902
vt 0.350550 0.600342
vt 0.343859 0.524902
vt 0.350550 0.524658
vt 0.475271 0.524414
vt 0.274450 0.524658
vt 0.274450 0.600342
vt 0.399729 0.600586
vt 0.274450 0.600342
vt 0.274450 0.524658
vt 0.399729 0.524414
vt 0.399450 0.399414
vt 0.349849 0.274414
vt 0.281141 0.600586
vt 0.399450 0.475586
vt 0.343859 0.600586
vt 0.475550 0.399414
vt 0.349849 0.350586
vt 0.343859 0.600586
vt 0.475550 0.475586
vt 0.281141 0.600586
vt 0.425273 0.475586
vt 0.429327 0.475586
vt 0.425273 0.399414
vt 0.337968 0.274414
vt 0.429327 0.399414
vt 0.274308 0.274414
vt 0.446401 0.475586
vt 0.450394 0.475586
vt 0.446401 0.399414
vt 0.274308 0.350586
vt 0.450394 0.399414
vt 0.337968 0.350586
vt 0.343859 0.524902
vt 0.350550 0.524658
vt 0.281141 0.524902
vt 0.350550 0.600342
vt 0.475271 0.600586
vt 0.281141 0.524902
vt 0.350550 0.600342
vt 0.343859 0.524902
vt 0.350550 0.524658
vt 0.475271 0.524414
vt 0.274450 0.524658
vt 0.343859 0.600586
vt 0.274450 0.600342
vt 0.399729 0.600586
vt 0.281141 0.600586
vt 0.274450 0.600342
vt 0.281141 0.600586
vt 0.274450 0.524658
vt 0.399729 0.524414
vt 0.343859 0.600586
vt 0.343859 0.524902
vt 0.350550 0.524658
vt 0.281141 0.524902
vt 0.350550 0.600342
vt 0.475271 0.600586
vt 0.281141 0.524902
vt 0.350550 0.600342
vt 0.343859 0.524902
vt 0.350550 0.524658
vt 0.475271 0.524414
vt 0.274450 0.524658
vt 0.274450 0.600342
vt 0.399729 0.600586
vt 0.274450 0.600342
vt 0.274450 0.524658
vt 0.399729 0.524414
vt 0.085000 0.064149
vt 0.165000 0.064149
vt 0.095000 0.064149
vt 0.105135 0.064149
vt 0.115000 0.064149
vt 0.125000 0.064149
vt 0.134933 0.064149
vt 0.144866 0.064149
vt 0.154798 0.064149
vt 0.085000 0.224851
vt 0.165000 0.224851
vt 0.095000 0.224851
vt 0.105135 0.224851
vt 0.115000 0.224851
vt 0.125000 0.224851
vt 0.134933 0.224851
vt 0.144866 0.224851
vt 0.154798 0.224851
vt 0.452338 0.399414
vt 0.459757 0.399414
vt 0.467377 0.399414
vt 0.407623 0.399414
vt 0.415093 0.399414
vt 0.422662 0.399414
vt 0.430031 0.399414
vt 0.437500 0.399414
vt 0.444919 0.399414
vt 0.452338 0.475586
vt 0.475550 0.326709
vt 0.459757 0.475586
vt 0.451731 0.350586
vt 0.467377 0.475586
vt 0.407623 0.475586
vt 0.423359 0.350586
vt 0.415093 0.475586
vt 0.399450 0.326709
vt 0.422662 0.475586
vt 0.399450 0.298270
vt 0.430031 0.475586
vt 0.423359 0.274414
vt 0.437500 0.475586
vt 0.451731 0.274414
vt 0.444919 0.475586
vt 0.475550 0.298270
vt 0.452338 0.399414
vt 0.459757 0.399414
vt 0.467377 0.399414
vt 0.407623 0.399414
vt 0.415093 0.399414
vt 0.422662 0.399414
vt 0.430031 0.399414
vt 0.437500 0.399414
vt 0.444919 0.399414
vt 0.452338 0.475586
vt 0.475550 0.326709
vt 0.459757 0.475586
vt 0.451731 0.350586
vt 0.467377 0.475586
vt 0.407623 0.475586
vt 0.423359 0.350586
vt 0.415093 0.475586
vt 0.399450 0.326709
vt 0.422662 0.475586
vt 0.399450 0.298270
vt 0.430031 0.475586
vt 0.423359 0.274414
vt 0.437500 0.475586
vt 0.451731 0.274414
vt 0.444919 0.475586
vt 0.475550 0.298270
s 1
usemtl 
f 16/25/1 1/1/1 14/22/1
f 16/25/1 3/3/1 1/1/1
f 4/5/2 5/7/2 2/2/2
f 4/5/2 7/10/2 5/7/2
f 8/13/3 9/15/3 6/9/3
f 8/13/3 11/17/3 9/15/3
f 3/3/4 2/2/4 1/1/4
f 3/3/4 4/5/4 2/2/4
f 7/11/5 6/9/5 5/8/5
f 7/11/5 8/13/5 6/9/5
f 11/17/6 10/16/6 9/15/6
f 11/17/6 12/19/6 10/16/6
f 15/23/7 14/22/7 13/21/7
f 15/23/7 16/25/7 14/22/7
f 8/14/8 4/6/8 3/4/8
f 8/14/8 7/12/8 4/6/8
f 3/4/8 11/18/8 8/14/8
f 3/4/8 16/26/8 11/18/8
f 15/24/8 11/18/8 16/26/8
f 15/24/8 12/20/8 11/18/8
f 25/43/9 24/41/9 27/45/9
f 25/43/9 22/38/9 24/41/9
f 23/39/10 18/30/10 17/27/10
f 23/39/10 21/37/10 18/30/10
f 20/35/11 28/47/11 19/32/11
f 20/35/11 26/44/11 28/47/11
f 22/38/12 23/39/12 24/41/12
f 22/38/12 21/37/12 23/39/12
f 26/44/13 27/45/13 28/47/13
f 26/44/13 25/43/13 27/45/13
f 28/48/8 24/42/8 23/40/8
f 28/48/8 23/40/8 17/28/8
f 28/48/8 17/28/8 19/33/8
f 28/48/8 27/46/8 24/42/8
f 17/29/14 29/49/14 30/51/14
f 17/29/14 18/31/14 29/49/14
f 18/31/14 31/54/14 29/49/14
f 18/31/14 20/36/14 31/54/14
f 20/36/14 32/56/14 31/54/14
f 20/36/14 19/34/14 32/56/14
f 19/34/14 30/51/14 32/56/14
f 19/34/14 17/29/14 30/51/14
f 30/52/10 33/59/10 34/61/10
f 30/52/10 29/50/10 33/59/10
f 31/55/11 36/66/11 35/64/11
f 31/55/11 32/57/11 36/66/11
f 32/58/8 34/62/8 36/67/8
f 32/58/8 30/53/8 34/62/8
f 34/63/9 37/69/9 38/71/9
f 34/63/9 33/60/9 37/69/9
f 33/60/9 39/74/9 37/69/9
f 33/60/9 35/65/9 39/74/9
f 35/65/9 40/76/9 39/74/9
f 35/65/9 36/68/9 40/76/9
f 36/68/9 38/71/9 40/76/9
f 36/68/9 34/63/9 38/71/9
f 38/72/10 41/79/10 42/80/10
f 38/72/10 37/70/10 41/79/10
f 39/75/11 44/83/11 43/82/11
f 39/75/11 40/77/11 44/83/11
f 40/78/8 42/81/8 44/84/8
f 40/78/8 38/73/8 42/81/8
f 53/101/10 52/99/10 55/103/10
f 53/101/10 50/96/10 52/99/10
f 51/97/14 46/88/14 45/85/14
f 51/97/14 49/95/14 46/88/14
f 48/93/9 56/105/9 47/90/9
f 48/93/9 54/102/9 56/105/9
f 50/96/15 51/97/15 52/99/15
f 50/96/15 49/95/15 51/97/15
f 54/102/12 55/103/12 56/105/12
f 54/102/12 53/101/12 55/103/12
f 51/98/8 55/104/8 52/100/8
f 51/98/8 56/106/8 55/104/8
f 45/86/8 56/106/8 51/98/8
f 45/86/8 47/91/8 56/106/8
f 45/87/11 57/107/11 58/109/11
f 45/87/11 46/89/11 57/107/11
f 46/89/11 59/112/11 57/107/11
f 46/89/11 48/94/11 59/112/11
f 48/94/11 60/114/11 59/112/11
f 48/94/11 47/92/11 60/114/11
f 47/92/11 58/109/11 60/114/11
f 47/92/11 45/87/11 58/109/11
f 58/110/14 61/117/14 62/119/14
f 58/110/14 57/108/14 61/117/14
f 59/113/9 64/124/9 63/122/9
f 59/113/9 60/115/9 64/124/9
f 60/116/8 62/120/8 64/125/8
f 60/116/8 58/111/8 62/120/8
f 62/121/10 65/127/10 66/129/10
f 62/121/10 61/118/10 65/127/10
f 61/118/10 67/132/10 65/127/10
f 61/118/10 63/123/10 67/132/10
f 63/123/10 68/134/10 67/132/10
f 63/123/10 64/126/10 68/134/10
f 64/126/10 66/129/10 68/134/10
f 64/126/10 62/121/10 66/129/10
f 66/130/14 69/137/14 70/138/14
f 66/130/14 65/128/14 69/137/14
f 67/133/9 72/141/9 71/140/9
f 67/133/9 68/135/9 72/141/9
f 68/136/8 70/139/8 72/142/8
f 68/136/8 66/131/8 70/139/8
f 81/159/14 80/157/14 83/161/14
f 81/159/14 78/154/14 80/157/14
f 79/155/11 74/146/11 73/143/11
f 79/155/11 77/153/11 74/146/11
f 76/151/10 84/163/10 75/148/10
f 76/151/10 82/160/10 84/163/10
f 78/154/16 79/155/16 80/157/16
f 78/154/16 77/153/16 79/155/16
f 82/160/15 83/161/15 84/163/15
f 82/160/15 81/159/15 83/161/15
f 79/156/8 83/162/8 80/158/8
f 79/156/8 84/164/8 83/162/8
f 73/144/8 84/164/8 79/156/8
f 73/144/8 75/149/8 84/164/8
f 73/145/9 85/165/9 86/167/9
f 73/145/9 74/147/9 85/165/9
f 74/147/9 87/170/9 85/165/9
f 74/147/9 76/152/9 87/170/9
f 76/152/9 88/172/9 87/170/9
f 76/152/9 75/150/9 88/172/9
f 75/150/9 86/167/9 88/172/9
f 75/150/9 73/145/9 86/167/9
f 86/168/11 89/175/11 90/177/11
f 86/168/11 85/166/11 89/175/11
f 87/171/10 92/182/10 91/180/10
f 87/171/10 88/173/10 92/182/10
f 88/174/8 90/178/8 92/183/8
f 88/174/8 86/169/8 90/178/8
f 90/179/14 93/185/14 94/187/14
f 90/179/14 89/176/14 93/185/14
f 89/176/14 95/190/14 93/185/14
f 89/176/14 91/181/14 95/190/14
f 91/181/14 96/192/14 95/190/14
f 91/181/14 92/184/14 96/192/14
f 92/184/14 94/187/14 96/192/14
f 92/184/14 90/179/14 94/187/14
f 94/188/11 97/195/11 98/196/11
f 94/188/11 93/186/11 97/195/11
f 95/191/10 100/199/10 99/198/10
f 95/191/10 96/193/10 100/199/10
f 96/194/8 98/197/8 100/200/8
f 96/194/8 94/189/8 98/197/8
f 109/217/11 108/215/11 111/219/11
f 109/217/11 106/212/11 108/215/11
f 107/213/9 102/204/9 101/201/9
f 107/213/9 105/211/9 102/204/9
f 104/209/14 112/221/14 103/206/14
f 104/209/14 110/218/14 112/221/14
f 106/212/13 107/213/13 108/215/13
f 106/212/13 105/211/13 107/213/13
f 110/218/16 111/219/16 112/221/16
f 110/218/16 109/217/16 111/219/16
f 108/216/8 112/222/8 111/220/8
f 108/216/8 107/214/8 112/222/8
f 112/222/8 107/214/8 101/202/8
f 112/222/8 101/202/8 103/207/8
f 101/203/10 113/223/10 114/225/10
f 101/203/10 102/205/10 113/223/10
f 102/205/10 115/228/10 113/223/10
f 102/205/10 104/210/10 115/228/10
f 104/210/10 116/230/10 115/228/10
f 104/210/10 103/208/10 116/230/10
f 103/208/10 114/225/10 116/230/10
f 103/208/10 101/203/10 114/225/10
f 114/226/9 117/233/9 118/235/9
f 114/226/9 113/224/9 117/233/9
f 115/229/14 120/240/14 119/238/14
f 115/229/14 116/231/14 120/240/14
f 116/232/8 118/236/8 120/241/8
f 116/232/8 114/227/8 118/236/8
f 118/237/11 121/243/11 122/245/11
f 118/237/11 117/234/11 121/243/11
f 117/234/11 123/248/11 121/243/11
f 117/234/11 119/239/11 123/248/11
f 119/239/11 124/250/11 123/248/11
f 119/239/11 120/242/11 124/250/11
f 120/242/11 122/245/11 124/250/11
f 120/242/11 118/237/11 122/245/11
f 122/246/9 125/253/9 126/254/9
f 122/246/9 121/244/9 125/253/9
f 123/249/14 128/257/14 127/256/14
f 123/249/14 124/251/14 128/257/14
f 124/252/8 126/255/8 128/258/8
f 124/252/8 122/247/8 126/255/8
f 138/270/17 129/259/18 130/261/17
f 138/270/17 137/268/18 129/259/18
f 139/271/19 138/270/17 130/261/17
f 139/271/19 130/261/17 131/262/19
f 140/272/20 139/271/19 131/262/19
f 140/272/20 131/262/19 132/263/20
f 141/273/21 140/272/20 132/263/20
f 141/273/21 132/263/20 133/264/21
f 142/274/22 141/273/21 133/264/21
f 142/274/22 133/264/21 134/265/22
f 143/275/23 142/274/22 134/265/22
f 143/275/23 134/265/22 135/266/23
f 144/276/24 143/275/23 135/266/23
f 144/276/24 135/266/23 136/267/24
f 137/269/18 144/276/24 136/267/24
f 137/269/18 136/267/24 129/260/18
f 153/286/18 146/278/17 154/288/17
f 153/286/18 145/277/18 146/278/17
f 154/288/17 146/278/17 147/279/19
f 154/288/17 147/279/19 155/290/19
f 160/301/24 145/277/18 153/286/18
f 160/301/24 152/285/24 145/277/18
f 159/299/23 152/285/24 160/301/24
f 159/299/23 151/284/23 152/285/24
f 158/297/22 151/284/23 159/299/23
f 158/297/22 150/283/22 151/284/23
f 157/295/21 150/283/22 158/297/22
f 157/295/21 149/282/21 150/283/22
f 156/293/20 149/282/21 157/295/21
f 156/293/20 148/281/20 149/282/21
f 155/291/19 148/281/20 156/293/20
f 155/291/19 147/280/19 148/281/20
f 153/287/8 157/296/8 160/302/8
f 153/287/8 156/294/8 157/296/8
f 153/287/8 155/292/8 156/294/8
f 153/287/8 154/289/8 155/292/8
f 160/302/8 157/296/8 158/298/8
f 160/302/8 158/298/8 159/300/8
f 169/312/18 162/304/17 170/314/17
f 169/312/18 161/303/18 162/304/17
f 170/314/17 162/304/17 163/305/19
f 170/314/17 163/305/19 171/316/19
f 176/327/24 161/303/18 169/312/18
f 176/327/24 168/311/24 161/303/18
f 175/325/23 168/311/24 176/327/24
f 175/325/23 167/310/23 168/311/24
f 174/323/22 167/310/23 175/325/23
f 174/323/22 166/309/22 167/310/23
f 173/321/21 166/309/22 174/323/22
f 173/321/21 165/308/21 166/309/22
f 172/319/20 165/308/21 173/321/21
f 172/319/20 164/307/20 165/308/21
f 171/317/19 164/307/20 172/319/20
f 171/317/19 163/306/19 164/307/20
f 169/313/8 173/322/8 176/328/8
f 169/313/8 172/320/8 173/322/8
f 169/313/8 171/318/8 172/320/8
f 169/313/8 170/315/8 171/318/8
f 176/328/8 173/322/8 174/324/8
f 176/328/8 174/324/8 175/326/8
