g enemyStarActive_Geo
v -0.24999967 -0.19091818 -0.14433734
v 0.25000033 -0.19091818 -0.14433734
v 2.8320311E-08 -0.19091818 0.28867534
v 3.334961E-07 -0.5991665 2.65625E-07
v -0.24999997 0.21732995 0.14433773
v 3.334961E-07 0.21733004 -0.28867495
v -0.24956022 -0.19109732 -0.14408374
v -0.49999964 0.21679178 -0.2886748
v 0.25000033 0.21732995 0.14433773
v 0.24956056 -0.1910974 -0.14408359
v 0.5 0.21679178 -0.2886748
v 2.8320311E-08 -0.1910974 0.2881677
v 2.8320311E-08 0.21679178 0.5773501
v 3.334961E-07 0.6255785 1.1303711E-07
v -0.49999994 -0.1909182 0.28867534
v 0.50000036 -0.1909182 0.28867534
v 3.334961E-07 -0.1909182 -0.57735
v 0.25000033 -0.19091818 -0.14433734
v 2.8320311E-08 -0.19091818 0.28867534
v -0.24999967 -0.19091818 -0.14433734
v 3.334961E-07 0.21733004 -0.28867495
v -0.24956022 -0.19109732 -0.14408374
v -0.24999997 0.21732995 0.14433773
v 0.25000033 0.21732995 0.14433773
v 0.24956056 -0.1910974 -0.14408359
v 2.8320311E-08 -0.1910974 0.2881677
v -0.24999997 0.21732995 0.14433773
v 0.25000033 0.21732995 0.14433773
v 3.334961E-07 0.21733004 -0.28867495
v 3.334961E-07 0.21733004 -0.28867495
v 2.8320311E-08 -0.19091818 0.28867534
v -0.24999967 -0.19091818 -0.14433734
v -0.24999997 0.21732995 0.14433773
v 0.25000033 -0.19091818 -0.14433734
v 2.8320311E-08 -0.19091818 0.28867534
v 0.25000033 0.21732995 0.14433773
v 0.25000033 -0.19091818 -0.14433734
v -0.24999967 -0.19091818 -0.14433734
v 3.334961E-07 -0.5991665 2.65625E-07
v 3.334961E-07 -0.5991665 2.65625E-07
v -0.49999964 0.21679178 -0.2886748
v -0.49999964 0.21679178 -0.2886748
v 3.334961E-07 0.21733004 -0.28867495
v 0.5 0.21679178 -0.2886748
v 0.5 0.21679178 -0.2886748
v 3.334961E-07 0.21733004 -0.28867495
v 0.25000033 0.21732995 0.14433773
v -0.24999997 0.21732995 0.14433773
v -0.24999997 0.21732995 0.14433773
v 2.8320311E-08 0.21679178 0.5773501
v 2.8320311E-08 0.21679178 0.5773501
v 0.25000033 0.21732995 0.14433773
v 0.25000033 0.21732995 0.14433773
v 3.334961E-07 0.6255785 1.1303711E-07
v 3.334961E-07 0.6255785 1.1303711E-07
v -0.24999997 0.21732995 0.14433773
v -0.49999994 -0.1909182 0.28867534
v -0.24999997 0.21732995 0.14433773
v 2.8320311E-08 -0.19091818 0.28867534
v -0.24999967 -0.19091818 -0.14433734
v -0.49999994 -0.1909182 0.28867534
v 2.8320311E-08 -0.19091818 0.28867534
v 0.25000033 0.21732995 0.14433773
v 0.50000036 -0.1909182 0.28867534
v 0.50000036 -0.1909182 0.28867534
v -0.24999967 -0.19091818 -0.14433734
v 0.25000033 -0.19091818 -0.14433734
v 0.25000033 -0.19091818 -0.14433734
v 3.334961E-07 0.21733004 -0.28867495
v 3.334961E-07 -0.1909182 -0.57735
v 3.334961E-07 -0.1909182 -0.57735
v 3.334961E-07 0.21733004 -0.28867495
vt 0.85058594 0.9774998
vt 0.64941406 0.9774998
vt 0.64941406 0.9774998
vt 0.75 0.77441406
vt 0.85058594 0.9774998
vt 0.64941406 0.9774998
vt 0.64941406 0.9774998
vt 0.75 0.77441406
vt 0.64941406 0.9774998
vt 0.64941406 0.9774998
vt 0.74999994 0.77441406
vt 0.64941406 0.9774998
vt 0.74999994 0.77441406
vt 0.8749999 0.97749984
vt 0.87499976 0.9775002
vt 0.87500036 0.9775001
vt 0.8749999 0.97749996
vt 0.85058594 0.9774998
vt 0.85058594 0.9774998
vt 0.64941406 0.9774998
vt 0.85058594 0.9774998
vt 0.85058594 0.9774998
vt 0.64941406 0.9774998
vt 0.85058594 0.9774998
vt 0.85058594 0.9774998
vt 0.85058594 0.9774998
vt 0.97558594 0.77441406
vt 0.77441406 0.77441406
vt 0.97558594 0.77441406
vt 0.77441406 0.77441406
vt 0.77441406 0.77441406
vt 0.97558594 0.77441406
vt 0.77441406 0.77441406
vt 0.97558594 0.77441406
vt 0.97558594 0.77441406
vt 0.97558594 0.77441406
vt 0.77441406 0.77441406
vt 0.77441406 0.77441406
vt 0.75 0.77441406
vt 0.74999994 0.77441406
vt 0.74999994 0.77441406
vt 0.75 0.77441406
vt 0.85058594 0.9774998
vt 0.74999994 0.77441406
vt 0.75 0.77441406
vt 0.64941406 0.9774998
vt 0.85058594 0.9774998
vt 0.64941406 0.9774998
vt 0.85058594 0.9774998
vt 0.74999994 0.77441406
vt 0.75 0.77441406
vt 0.64941406 0.9774998
vt 0.77441406 0.77441406
vt 0.8749999 0.97749984
vt 0.8749999 0.97749996
vt 0.97558594 0.77441406
vt 0.87499976 0.9775002
vt 0.97558594 0.77441406
vt 0.77441406 0.77441406
vt 0.97558594 0.77441406
vt 0.87499976 0.9775002
vt 0.77441406 0.77441406
vt 0.77441406 0.77441406
vt 0.87499976 0.9775002
vt 0.87500036 0.9775001
vt 0.97558594 0.77441406
vt 0.77441406 0.77441406
vt 0.77441406 0.77441406
vt 0.97558594 0.77441406
vt 0.8749999 0.97749996
vt 0.8749999 0.97749996
vt 0.97558594 0.77441406
vn -1.1276372E-07 -0.33333325 -0.9428091
vn -1.1276372E-07 -0.33333325 -0.9428091
vn 0.81649673 -0.3333332 0.4714044
vn -1.1276373E-07 -0.3333333 -0.94280905
vn -0.0010765492 0.9999992 -0.00062140817
vn -0.0010765492 0.9999992 -0.00062140817
vn 0.0003591329 -0.33391893 -0.9426017
vn -0.0010765493 0.9999992 -0.0006214082
vn 0.0010765493 0.9999992 -0.00062154233
vn 0.81613755 -0.3339189 0.4716119
vn 0.0010765194 0.9999992 -0.0006215274
vn -0.8164966 -0.3339189 0.47098982
vn -0 0.9999992 0.0012430548
vn -0 0.33333334 0.94280905
vn -0 -1 -1.1276369E-07
vn -0 -1 -1.1276371E-07
vn -0 -1 -1.1276371E-07
vn 0.81649673 -0.3333332 0.4714044
vn -0.8164966 -0.33333334 0.47140452
vn -0.8164966 -0.33333334 0.47140452
vn 0.0003591329 -0.33391893 -0.9426017
vn -0.81613743 -0.333919 0.47161186
vn -0.8161375 -0.33391896 0.47161186
vn 0.81613755 -0.3339189 0.4716119
vn -0.00035916266 -0.3339189 -0.9426017
vn 0.8164966 -0.3339189 0.47098982
vn -0 0.33333334 0.94280905
vn -0 0.33333334 0.94280905
vn 0.8164966 0.33333334 -0.4714045
vn -0.8164966 0.33333328 -0.47140452
vn -0 -1 -1.1276369E-07
vn -0 -1 -1.1276369E-07
vn -0.81649655 0.3333334 -0.47140455
vn -0 -1 -1.1276371E-07
vn -1.1276372E-07 0.33333325 0.9428091
vn 0.8164966 0.33333337 -0.47140452
vn 0.8164966 0.33333337 -0.4714045
vn -0.81649655 0.33333337 -0.47140455
vn 0.81649673 -0.3333332 0.4714044
vn -0.8164966 -0.33333334 0.47140452
vn 0.0003591329 -0.3339189 -0.9426017
vn -0.8161375 -0.33391896 0.47161186
vn 0.0010765493 0.9999992 -0.00062154233
vn 0.81613743 -0.3339189 0.47161186
vn -0.00035917756 -0.3339189 -0.94260174
vn -0.00035916266 -0.3339189 -0.9426017
vn -0 0.9999992 0.0012430848
vn -0 0.9999992 0.0012430848
vn -0.8164966 -0.3339189 0.47098982
vn -0.8164966 -0.3339189 0.47098982
vn 0.8164966 -0.3339189 0.47098982
vn 0.8164966 -0.3339189 0.47098982
vn 0.8164966 0.33333334 -0.4714045
vn 0.8164966 0.33333334 -0.47140443
vn -0.8164966 0.33333328 -0.47140452
vn -0.81649655 0.33333337 -0.47140455
vn -1.127637E-07 0.33333337 0.94280905
vn -1.127637E-07 0.33333334 0.94280905
vn -1.127637E-07 0.33333334 0.94280905
vn -0.81649655 0.3333334 -0.47140455
vn -0.8164965 0.33333343 -0.47140452
vn -0 -1 -1.1276371E-07
vn -1.1276372E-07 0.33333325 0.9428091
vn -1.1276372E-07 0.33333325 0.9428091
vn 0.8164966 0.33333337 -0.4714045
vn -0 -1 -1.1276371E-07
vn -0 -1 -1.1276371E-07
vn 0.8164966 0.33333337 -0.47140452
vn 0.8164966 0.33333337 -0.47140452
vn 0.8164966 0.33333337 -0.47140452
vn -0.81649655 0.33333337 -0.47140455
vn -0.81649655 0.33333337 -0.47140455
g enemyStarActive_Geo_0
f 2/2/2 4/4/4 1/1/1
f 3/3/3 39/39/39 18/18/18
f 20/20/20 40/40/40 19/19/19
f 6/6/6 8/8/8 5/5/5
f 7/7/7 41/41/41 21/21/21
f 23/23/23 42/42/42 22/22/22
f 9/9/9 11/11/11 43/43/43
f 10/10/10 44/44/44 24/24/24
f 46/46/46 45/45/45 25/25/25
f 48/48/48 13/13/13 47/47/47
f 12/12/12 50/50/50 49/49/49
f 52/52/52 51/51/51 26/26/26
f 28/28/28 14/14/14 27/27/27
f 29/29/29 54/54/54 53/53/53
f 56/56/56 55/55/55 30/30/30
f 32/32/32 31/31/31 15/15/15
f 59/59/59 58/58/58 57/57/57
f 61/61/61 33/33/33 60/60/60
f 34/34/34 16/16/16 62/62/62
f 64/64/64 63/63/63 35/35/35
f 37/37/37 36/36/36 65/65/65
f 17/17/17 67/67/67 66/66/66
f 70/70/70 69/69/69 68/68/68
f 38/38/38 72/72/72 71/71/71
