# Blender 3.5.0
# www.blender.org
o enemySwitcherLv9
v 0.500000 -0.001000 0.499000
v -0.500000 -0.001000 0.499000
v -0.500000 -0.001000 -0.501000
v 0.500000 -1.001000 0.499000
v 0.500000 -0.001000 -0.501000
v 0.500000 -1.001000 -0.501000
v -0.500000 -1.001000 -0.501000
v -0.500000 -1.001000 0.499000
v 0.500000 -1.001000 0.499000
v -0.500000 -1.001000 0.499000
v -0.500000 -1.001000 -0.501000
v 0.500000 -2.001000 0.499000
v 0.500000 -1.001000 -0.501000
v 0.500000 -2.001000 -0.501000
v -0.500000 -2.001000 -0.501000
v -0.500000 -2.001000 0.499000
v 0.500000 -2.001000 0.499000
v -0.500000 -2.001000 0.499000
v -0.500000 -2.001000 -0.501000
v 0.500000 -3.001000 0.499000
v 0.500000 -2.001000 -0.501000
v 0.500000 -3.001000 -0.501000
v -0.500000 -3.001000 -0.501000
v -0.500000 -3.001000 0.499000
v 0.500000 -3.001000 0.499000
v -0.500000 -3.001000 0.499000
v -0.500000 -3.001000 -0.501000
v 0.500000 -4.001000 0.499000
v 0.500000 -3.001000 -0.501000
v 0.500000 -4.001000 -0.501000
v -0.500000 -4.001000 -0.501000
v -0.500000 -4.001000 0.499000
vn -0.0000 1.0000 -0.0000
vn 1.0000 -0.0000 -0.0000
vn -0.0000 -0.0000 -1.0000
vn -1.0000 -0.0000 -0.0000
vn -0.0000 -0.0000 1.0000
vt 0.688284 0.021950
vt 0.688284 0.977844
vt 0.976661 0.353989
vt 0.688284 0.689470
vt 0.688284 0.353989
vt 0.976602 0.021950
vt 0.688284 0.021950
vt 0.976602 0.689470
vt 0.976661 0.353989
vt 0.688284 0.308823
vt 0.688284 0.353989
vt 0.688284 0.353989
vt 0.688284 0.689470
vt 0.976602 0.021950
vt 0.688284 0.021950
vt 0.688284 0.640921
vt 0.688284 0.353989
vt 0.688284 0.308823
vt 0.688284 0.021950
vt 0.688284 0.640921
vt 0.688284 0.021950
vt 0.688284 0.977844
vt 0.976661 0.353989
vt 0.688284 0.689470
vt 0.688284 0.353989
vt 0.976602 0.021950
vt 0.688284 0.021950
vt 0.976602 0.689470
vt 0.976661 0.353989
vt 0.688284 0.308823
vt 0.688284 0.353989
vt 0.688284 0.353989
vt 0.688284 0.689470
vt 0.976602 0.021950
vt 0.688284 0.021950
vt 0.688284 0.640921
vt 0.688284 0.353989
vt 0.688284 0.308823
vt 0.688284 0.021950
vt 0.688284 0.640921
vt 0.688284 0.021950
vt 0.688284 0.977844
vt 0.976661 0.353989
vt 0.688284 0.689470
vt 0.688284 0.353989
vt 0.976602 0.021950
vt 0.688284 0.021950
vt 0.976602 0.689470
vt 0.976661 0.353989
vt 0.688284 0.308823
vt 0.688284 0.353989
vt 0.688284 0.353989
vt 0.688284 0.689470
vt 0.976602 0.021950
vt 0.688284 0.021950
vt 0.688284 0.640921
vt 0.688284 0.353989
vt 0.688284 0.308823
vt 0.688284 0.021950
vt 0.688284 0.640921
vt 0.688284 0.021950
vt 0.688284 0.977844
vt 0.976661 0.353989
vt 0.688284 0.689470
vt 0.688284 0.353989
vt 0.976602 0.021950
vt 0.688284 0.021950
vt 0.976602 0.689470
vt 0.976661 0.353989
vt 0.688284 0.308823
vt 0.688284 0.353989
vt 0.688284 0.353989
vt 0.688284 0.689470
vt 0.976602 0.021950
vt 0.688284 0.021950
vt 0.688284 0.640921
vt 0.688284 0.353989
vt 0.688284 0.308823
vt 0.688284 0.021950
vt 0.688284 0.640921
s 1
f 1/2/1 3/8/1 2/4/1
f 4/10/2 5/14/2 1/1/2
f 6/16/3 3/9/3 5/12/3
f 7/18/4 2/6/4 3/7/4
f 8/20/5 1/3/5 2/5/5
f 1/2/1 5/13/1 3/8/1
f 4/10/2 6/15/2 5/14/2
f 6/16/3 7/17/3 3/9/3
f 7/18/4 8/19/4 2/6/4
f 8/20/5 4/11/5 1/3/5
f 9/22/1 11/28/1 10/24/1
f 12/30/2 13/34/2 9/21/2
f 14/36/3 11/29/3 13/32/3
f 15/38/4 10/26/4 11/27/4
f 16/40/5 9/23/5 10/25/5
f 9/22/1 13/33/1 11/28/1
f 12/30/2 14/35/2 13/34/2
f 14/36/3 15/37/3 11/29/3
f 15/38/4 16/39/4 10/26/4
f 16/40/5 12/31/5 9/23/5
f 17/42/1 19/48/1 18/44/1
f 20/50/2 21/54/2 17/41/2
f 22/56/3 19/49/3 21/52/3
f 23/58/4 18/46/4 19/47/4
f 24/60/5 17/43/5 18/45/5
f 17/42/1 21/53/1 19/48/1
f 20/50/2 22/55/2 21/54/2
f 22/56/3 23/57/3 19/49/3
f 23/58/4 24/59/4 18/46/4
f 24/60/5 20/51/5 17/43/5
f 25/62/1 27/68/1 26/64/1
f 28/70/2 29/74/2 25/61/2
f 30/76/3 27/69/3 29/72/3
f 31/78/4 26/66/4 27/67/4
f 32/80/5 25/63/5 26/65/5
f 25/62/1 29/73/1 27/68/1
f 28/70/2 30/75/2 29/74/2
f 30/76/3 31/77/3 27/69/3
f 31/78/4 32/79/4 26/66/4
f 32/80/5 28/71/5 25/63/5
