o enemyTree_palm_base
v 0.350000 0.021000 0.262500
v 0.262500 0.021000 0.350000
v -0.262500 0.021000 0.350000
v -0.350000 0.021000 0.262500
v -0.350000 0.021000 -0.262500
v -0.262500 0.021000 -0.350000
v 0.262500 0.021000 -0.350000
v 0.350000 0.021000 -0.262500
v -0.150000 0.021000 -0.112500
v -0.112500 0.021000 -0.150000
v 0.112500 0.021000 -0.150000
v 0.150000 0.021000 -0.112500
v 0.150000 0.021000 0.112500
v 0.112500 0.021000 0.150000
v -0.112500 0.021000 0.150000
v -0.150000 0.021000 0.112500
v -0.306965 -0.150000 -0.460449
v -0.460448 -0.150000 -0.345336
v 0.345336 -0.150000 -0.460449
v 0.460449 -0.150000 -0.345336
v 0.460449 -0.150000 0.345336
v 0.345336 -0.150000 0.460448
v -0.306965 -0.150000 0.460448
v -0.460448 -0.150000 0.345336
v -0.460448 -0.450000 -0.345337
v -0.306965 -0.450000 -0.460449
v 0.345336 -0.450000 -0.460449
v 0.460449 -0.450000 -0.345337
v 0.460449 -0.450000 0.345336
v 0.345336 -0.450000 0.460448
v -0.306965 -0.450000 0.460448
v -0.460448 -0.450000 0.345336
v -0.371006 -0.550000 -0.300615
v -0.275342 -0.550000 -0.365580
v 0.307068 -0.550000 -0.368061
v 0.368061 -0.550000 -0.307068
v 0.368061 -0.550000 0.307068
v 0.307068 -0.550000 0.368060
v -0.275342 -0.550000 0.365580
v -0.371006 -0.550000 0.300615
vn -0.0000 1.0000 -0.0000
vn -0.6000 -0.0000 -0.8000
vn -0.0000 -0.0000 -1.0000
vn 0.7071 -0.0000 -0.7071
vn 1.0000 -0.0000 -0.0000
vn 0.7071 -0.0000 0.7071
vn -0.0000 -0.0000 1.0000
vn -0.6000 -0.0000 0.8000
vn -1.0000 -0.0000 -0.0000
vn -0.4310 -0.6772 -0.5964
vn -0.0868 -0.6933 -0.7154
vn -0.0880 -0.6934 -0.7151
vn -0.0015 -0.6835 -0.7300
vn -0.0015 -0.6834 -0.7300
vn 0.5194 -0.6786 -0.5194
vn 0.7345 -0.6786 -0.0000
vn 0.5194 -0.6786 0.5194
vn -0.0015 -0.6834 0.7300
vn -0.0868 -0.6933 0.7154
vn -0.0880 -0.6934 0.7151
vn -0.4310 -0.6772 0.5964
vn -0.7454 -0.6667 -0.0000
vt 0.501283 0.609555
vt 0.499672 0.607919
vt 0.490007 0.607919
vt 0.488396 0.609555
vt 0.488396 0.619373
vt 0.490007 0.621009
vt 0.499672 0.621009
vt 0.501283 0.619373
vt 0.492497 0.616235
vt 0.493182 0.616828
vt 0.496588 0.616828
vt 0.497172 0.616235
vt 0.497172 0.612646
vt 0.496588 0.612032
vt 0.493182 0.612032
vt 0.492497 0.612646
vt 0.622448 0.566227
vt 0.626809 0.566227
vt 0.603947 0.566227
vt 0.603947 0.566227
vt 0.599586 0.566227
vt 0.622448 0.566227
vt 0.603947 0.566227
vt 0.626809 0.566227
vt 0.622448 0.566227
vt 0.603947 0.566227
vt 0.599586 0.566227
vt 0.622448 0.566227
vt 0.626809 0.542267
vt 0.599586 0.542267
vt 0.603947 0.542267
vt 0.622448 0.542267
vt 0.603947 0.542267
vt 0.603947 0.542267
vt 0.622448 0.542267
vt 0.599586 0.542267
vt 0.626809 0.542267
vt 0.622448 0.542267
vt 0.603947 0.542267
vt 0.626809 0.542267
vt 0.622448 0.542267
vt 0.603947 0.542267
vt 0.599586 0.542267
vt 0.622448 0.542267
vt 0.599586 0.547235
vt 0.603947 0.547235
vt 0.603947 0.547235
vt 0.622448 0.547235
vt 0.626809 0.547235
vt 0.622448 0.547235
vt 0.603947 0.547235
vt 0.626809 0.547235
vt 0.622448 0.547235
vt 0.603947 0.547235
vt 0.599586 0.547235
vt 0.622448 0.547235
s 1
f 1/1/1 12/12/1 13/13/1
f 1/1/1 8/8/1 12/12/1
f 2/2/1 1/1/1 13/13/1
f 2/2/1 13/13/1 14/14/1
f 3/3/1 2/2/1 14/14/1
f 3/3/1 14/14/1 15/15/1
f 4/4/1 3/3/1 15/15/1
f 4/4/1 15/15/1 16/16/1
f 5/5/1 4/4/1 16/16/1
f 5/5/1 16/16/1 9/9/1
f 6/6/1 5/5/1 9/9/1
f 6/6/1 9/9/1 10/10/1
f 7/7/1 6/6/1 10/10/1
f 7/7/1 10/10/1 11/11/1
f 8/8/1 11/11/1 12/12/1
f 8/8/1 7/7/1 11/11/1
f 18/18/2 26/32/2 25/29/2
f 18/18/2 17/17/2 26/32/2
f 17/17/3 27/34/3 26/32/3
f 17/17/3 19/20/3 27/34/3
f 19/20/4 28/36/4 27/34/4
f 19/20/4 20/21/4 28/36/4
f 20/22/5 29/39/5 28/38/5
f 20/22/5 21/23/5 29/39/5
f 21/24/6 30/41/6 29/40/6
f 21/24/6 22/25/6 30/41/6
f 22/25/7 31/42/7 30/41/7
f 22/25/7 23/26/7 31/42/7
f 23/26/8 32/43/8 31/42/8
f 23/26/8 24/27/8 32/43/8
f 24/28/9 25/31/9 32/44/9
f 24/28/9 18/19/9 25/31/9
f 25/30/10 34/47/11 33/45/10
f 25/30/10 26/33/12 34/47/11
f 26/33/12 35/48/13 34/47/11
f 26/33/12 27/35/14 35/48/13
f 27/35/15 36/49/15 35/48/15
f 27/35/15 28/37/15 36/49/15
f 28/38/16 37/51/16 36/50/16
f 28/38/16 29/39/16 37/51/16
f 29/40/17 38/53/17 37/52/17
f 29/40/17 30/41/17 38/53/17
f 30/41/18 39/54/19 38/53/18
f 30/41/18 31/42/20 39/54/19
f 31/42/20 40/55/21 39/54/19
f 31/42/20 32/43/21 40/55/21
f 32/44/22 33/46/22 40/56/22
f 32/44/22 25/31/22 33/46/22
