# Blender 3.5.0
# www.blender.org
o enemyPillarLaser_beam
v 0.000000 1.493476 -41.625000
v 0.000000 1.493479 0.000500
v -0.300000 1.493479 0.000500
v -0.300000 1.793476 -41.625000
v 0.300000 1.493479 0.000500
v 0.300000 1.793476 -41.625000
vn 0.4472 0.8944 -0.0000
vn -0.0000 1.0000 0.0036
vn 0.4472 0.8944 0.0032
vn -0.4472 0.8944 0.0032
vt 0.300293 0.967813
vt 0.300293 0.967813
vt 0.255281 0.967813
vt 0.255281 0.967813
vt 0.255281 0.967813
vt 0.255281 0.967813
s 0
f 3/3/1 2/2/2 1/1/2
f 4/4/3 3/3/3 1/1/2
f 2/2/2 5/5/4 1/1/2
f 5/5/4 6/6/4 1/1/2
