o enemyPounder_geoHammer
v 2.424292 0.107298 0.319920
v 2.317770 0.102565 0.426546
v 1.678560 0.074162 0.426546
v 1.572040 0.069430 0.319920
v 1.572040 0.069430 -0.319920
v 1.678560 0.074162 -0.426546
v 2.317770 0.102565 -0.426546
v 2.424291 0.107298 -0.319920
v 1.559317 0.211068 0.319920
v 1.664976 0.225394 0.426546
v 2.299015 0.311362 0.426546
v 2.404674 0.325689 0.319920
v 2.404674 0.325689 -0.319920
v 2.299014 0.311362 -0.426546
v 1.664976 0.225394 -0.426546
v 1.559317 0.211067 -0.319920
v 1.345469 0.815767 0.319920
v 1.436643 0.871049 0.426546
v 1.983765 1.202792 0.426546
v 2.074941 1.258075 0.319920
v 2.074941 1.258075 -0.319920
v 1.983765 1.202792 -0.426546
v 1.436643 0.871049 -0.426546
v 1.345469 0.815767 -0.319920
v 2.180043 1.065636 0.319920
v 2.084251 1.018806 0.426546
v 1.509424 0.737790 0.426546
v 1.413632 0.690960 0.319920
v 1.413632 0.690959 -0.319920
v 1.509424 0.737789 -0.426546
v 2.084251 1.018805 -0.426546
v 2.180043 1.065636 -0.319920
v 1.676292 -0.025785 0.278499
v 1.724294 -0.023689 0.326546
v 1.676292 -0.025785 -0.278499
v 1.724294 -0.023689 -0.326546
v 2.280761 0.000607 0.326546
v 2.280761 0.000606 -0.326546
v 2.328763 0.002702 0.278499
v 2.328763 0.002703 -0.278498
v 1.385525 0.938499 -0.278499
v 1.425359 0.965366 -0.326546
v 1.385525 0.938498 0.278498
v 1.425359 0.965366 0.326546
v 1.887131 1.276835 0.326546
v 1.887131 1.276835 -0.326546
v 1.926963 1.303702 -0.278499
v 1.926963 1.303702 0.278498
v 0.720825 0.298813 -0.150001
v 0.764685 0.155353 -0.150001
v 0.786611 0.083637 -0.075008
v 0.786611 0.083637 0.075007
v 0.764685 0.155353 0.149999
v 0.720825 0.298813 0.149999
v 0.698900 0.370529 0.075007
v 0.698900 0.370529 -0.075008
v 0.730758 0.127566 0.190034
v 0.677161 0.302877 0.190034
v 0.648399 0.396953 0.091660
v 0.648399 0.396953 -0.091661
v 0.677161 0.302876 -0.190036
v 0.730758 0.127567 -0.190036
v 0.759520 0.033491 -0.091661
v 0.759520 0.033491 0.091660
v 1.506760 0.382227 -0.150001
v 1.462900 0.525688 -0.150001
v 1.440974 0.597403 -0.075009
v 1.440974 0.597403 0.075007
v 1.462900 0.525688 0.149999
v 1.506760 0.382228 0.149999
v 1.528685 0.310512 0.075007
v 1.528685 0.310512 -0.075009
v 0.343379 0.007396 -0.190723
v 0.288810 0.185883 -0.190723
v 0.260333 0.279028 -0.093322
v 0.260333 0.279028 0.093321
v 0.288810 0.185884 0.190720
v 0.343379 0.007396 0.190721
v 0.371856 -0.085748 0.093321
v 0.371856 -0.085748 -0.093322
vn 0.9569 0.2905 -0.0000
vn -0.0000 -0.0000 1.0000
vn -0.0000 -0.0000 -1.0000
vn 0.6810 0.2067 0.7025
vn 0.6809 0.2067 0.7026
vn -0.6809 -0.2067 0.7026
vn -0.6809 -0.2067 0.7025
vn -0.6809 -0.2067 -0.7026
vn -0.6809 -0.2067 -0.7025
vn 0.6809 0.2067 -0.7025
vn 0.6809 0.2067 -0.7026
vn -0.7046 -0.0633 0.7067
vn 0.7046 0.0633 0.7067
vn 0.9960 0.0895 -0.0000
vn 0.7046 0.0633 -0.7067
vn -0.7046 -0.0633 -0.7067
vn 0.8776 0.4793 -0.0000
vn 0.6209 0.3391 0.7067
vn -0.6209 -0.3391 0.7067
vn -0.6209 -0.3391 -0.7067
vn 0.6209 0.3391 -0.7067
vn -0.4677 -0.7292 0.4995
vn -0.4678 -0.7292 0.4994
vn -0.4680 -0.7291 0.4994
vn -0.4676 -0.7293 0.4995
vn -0.4677 -0.7292 -0.4995
vn -0.4678 -0.7293 -0.4994
vn -0.4678 -0.7294 -0.4992
vn -0.4677 -0.7292 -0.4996
vn 0.0311 -0.7064 0.7071
vn 0.0310 -0.7070 0.7065
vn 0.0311 -0.7065 0.7071
vn 0.0311 -0.7066 0.7070
vn 0.0312 -0.7065 -0.7070
vn 0.0311 -0.7064 -0.7071
vn 0.0311 -0.7063 -0.7072
vn 0.7384 -0.6744 -0.0000
vn 0.5312 -0.6836 0.5005
vn 0.5312 -0.6835 0.5006
vn 0.5311 -0.6834 0.5008
vn 0.5313 -0.6836 0.5004
vn 0.5312 -0.6836 -0.5005
vn 0.5312 -0.6836 -0.5006
vn 0.5310 -0.6837 -0.5006
vn 0.5314 -0.6835 -0.5005
vn -0.7927 0.4031 -0.4574
vn -0.7927 0.4030 -0.4573
vn -0.7927 0.4031 -0.4573
vn -0.7927 0.4031 0.4574
vn -0.7927 0.4031 0.4573
vn -0.3801 0.5963 0.7071
vn -0.3802 0.5963 -0.7071
vn 0.1027 0.8399 -0.5329
vn 0.1027 0.8398 -0.5331
vn 0.1027 0.8399 -0.5330
vn 0.1031 0.8399 0.5329
vn 0.1027 0.8398 0.5330
vn 0.2946 0.9556 -0.0000
vn 0.2947 0.9556 -0.0000
vn -0.6744 -0.7384 -0.0000
vn -0.9960 -0.0895 -0.0000
vn -0.9569 -0.2905 -0.0000
vn -0.8776 -0.4793 -0.0000
vn -0.9506 0.3103 -0.0000
vn -0.5592 0.8290 -0.0000
vn 0.0436 -0.9990 -0.0000
vn 0.0016 0.0005 1.0000
vn -0.2908 0.9568 -0.0000
vn -0.2028 0.6774 -0.7071
vn -0.2028 0.6774 0.7071
vn 0.2107 -0.6750 0.7071
vn 0.0016 0.0005 -1.0000
vn 0.2940 -0.9558 -0.0000
vn 0.2107 -0.6750 -0.7071
vn 0.6717 0.2054 0.7118
vn 0.5251 0.6865 0.5030
vn 0.4636 0.8860 -0.0000
vn 0.5251 0.6865 -0.5030
vn 0.6717 0.2054 -0.7118
vn 0.8192 -0.2755 -0.5030
vn 0.8798 -0.4753 -0.0000
vn 0.8192 -0.2755 0.5030
vn -0.2067 0.6762 -0.7071
vn -0.2924 0.9563 -0.0000
vn -0.2067 0.6762 0.7071
vn 0.2067 -0.6762 0.7071
vn 0.2924 -0.9563 -0.0000
vn 0.2067 -0.6762 -0.7071
vt 0.162962 0.399720
vt 0.087131 0.524651
vt 0.649651 0.600415
vt 0.725349 0.475415
vt 0.162962 0.274652
vt 0.087131 0.399720
vt 0.725349 0.475415
vt 0.162962 0.399720
vt 0.087131 0.274652
vt 0.649651 0.475415
vt 0.087131 0.399720
vt 0.649651 0.475415
vt 0.725349 0.600415
vt 0.162961 0.524652
vt 0.162962 0.399720
vt 0.725349 0.475415
vt 0.649651 0.600415
vt 0.087131 0.524651
vt 0.162962 0.274652
vt 0.087131 0.399720
vt 0.725349 0.475415
vt 0.162962 0.399720
vt 0.087131 0.274652
vt 0.649651 0.475415
vt 0.162961 0.524652
vt 0.087131 0.399720
vt 0.725349 0.600415
vt 0.649651 0.475415
vt 0.975586 0.399585
vt 0.087131 0.475349
vt 0.162962 0.600348
vt 0.975586 0.600415
vt 0.975586 0.274585
vt 0.975586 0.475415
vt 0.162962 0.475348
vt 0.087131 0.350348
vt 0.975586 0.350415
vt 0.975586 0.399585
vt 0.162962 0.350348
vt 0.087131 0.475349
vt 0.975586 0.524585
vt 0.975586 0.475415
vt 0.162962 0.475348
vt 0.087131 0.600349
vt 0.975586 0.600415
vt 0.975586 0.399585
vt 0.162962 0.600348
vt 0.087131 0.475349
vt 0.975586 0.274585
vt 0.975586 0.475415
vt 0.162962 0.475348
vt 0.087131 0.350348
vt 0.975586 0.350415
vt 0.975586 0.399585
vt 0.162962 0.350348
vt 0.087131 0.475349
vt 0.975586 0.475415
vt 0.162962 0.475348
vt 0.087131 0.600349
vt 0.975586 0.524585
vt 0.162962 0.399720
vt 0.725349 0.350586
vt 0.087131 0.524651
vt 0.649651 0.350586
vt 0.162962 0.274652
vt 0.087131 0.399720
vt 0.725349 0.350586
vt 0.162962 0.399720
vt 0.087131 0.274652
vt 0.649651 0.350586
vt 0.162961 0.524652
vt 0.087131 0.399720
vt 0.649651 0.350586
vt 0.725349 0.350586
vt 0.087131 0.524651
vt 0.162962 0.399720
vt 0.725349 0.350586
vt 0.649651 0.350586
vt 0.162962 0.274652
vt 0.087131 0.399720
vt 0.725349 0.350586
vt 0.162962 0.399720
vt 0.087131 0.274652
vt 0.649651 0.350586
vt 0.087131 0.399720
vt 0.649651 0.350586
vt 0.162961 0.524652
vt 0.725349 0.350586
vt 0.774414 0.524585
vt 0.774414 0.475415
vt 0.162962 0.600348
vt 0.087131 0.475349
vt 0.774414 0.350415
vt 0.774414 0.399585
vt 0.162962 0.475348
vt 0.087131 0.350348
vt 0.774414 0.274585
vt 0.774414 0.475415
vt 0.162962 0.350348
vt 0.087131 0.475349
vt 0.774414 0.399585
vt 0.162962 0.475348
vt 0.774414 0.600415
vt 0.087131 0.600349
vt 0.774414 0.475415
vt 0.087131 0.475349
vt 0.774414 0.524585
vt 0.162962 0.600348
vt 0.774414 0.350415
vt 0.774414 0.399585
vt 0.162962 0.475348
vt 0.087131 0.350348
vt 0.774414 0.274585
vt 0.774414 0.475415
vt 0.162962 0.350348
vt 0.087131 0.475349
vt 0.774414 0.600415
vt 0.774414 0.399585
vt 0.087131 0.600349
vt 0.162962 0.475348
vt 0.649651 0.399585
vt 0.725349 0.524585
vt 0.649651 0.350586
vt 0.649651 0.399585
vt 0.649651 0.350586
vt 0.725349 0.399585
vt 0.649651 0.524585
vt 0.649651 0.274414
vt 0.725349 0.399585
vt 0.649651 0.274414
vt 0.725349 0.399585
vt 0.725349 0.350586
vt 0.649651 0.399585
vt 0.725349 0.274414
vt 0.649651 0.524585
vt 0.725349 0.399585
vt 0.725349 0.350586
vt 0.725349 0.524585
vt 0.649651 0.399585
vt 0.725349 0.274414
vt 0.649651 0.274414
vt 0.725349 0.274414
vt 0.649651 0.274414
vt 0.725349 0.274414
vt 0.725349 0.274414
vt 0.649651 0.274414
vt 0.725349 0.350586
vt 0.725349 0.274414
vt 0.725349 0.350586
vt 0.649651 0.274414
vt 0.649651 0.350586
vt 0.725349 0.274414
vt 0.649651 0.274414
vt 0.725349 0.274414
vt 0.649651 0.274414
vt 0.649651 0.274414
vt 0.725349 0.274414
vt 0.649651 0.350586
vt 0.649652 0.600415
vt 0.725348 0.600415
vt 0.267191 0.068233
vt 0.235128 0.068233
vt 0.649652 0.600415
vt 0.725348 0.600415
vt 0.235128 0.068233
vt 0.267191 0.068233
vt 0.649651 0.600415
vt 0.725349 0.600415
vt 0.267191 0.068233
vt 0.235128 0.068233
vt 0.649651 0.600415
vt 0.725348 0.600415
vt 0.267191 0.068233
vt 0.235128 0.068233
vt 0.725349 0.600415
vt 0.649651 0.600415
vt 0.267191 0.068233
vt 0.235128 0.068233
vt 0.649652 0.600415
vt 0.725348 0.600415
vt 0.267191 0.068233
vt 0.235128 0.068233
vt 0.649652 0.600415
vt 0.725348 0.600415
vt 0.267191 0.068233
vt 0.235128 0.068233
vt 0.649651 0.600415
vt 0.725348 0.600415
vt 0.267191 0.068233
vt 0.235128 0.068233
vt 0.413764 0.224852
vt 0.357644 0.224852
vt 0.725349 0.524585
vt 0.649651 0.524585
vt 0.357644 0.224852
vt 0.413764 0.224852
vt 0.649651 0.524585
vt 0.725349 0.524585
vt 0.413764 0.224852
vt 0.357644 0.224852
vt 0.649651 0.524585
vt 0.725349 0.524585
vt 0.357644 0.224852
vt 0.413764 0.224852
vt 0.649651 0.524585
vt 0.725349 0.524585
vt 0.357644 0.224852
vt 0.413764 0.224852
vt 0.649651 0.524585
vt 0.725349 0.524585
vt 0.357644 0.224852
vt 0.413764 0.224852
vt 0.649651 0.524585
vt 0.725349 0.524585
vt 0.413764 0.224852
vt 0.357644 0.224852
vt 0.649651 0.524585
vt 0.725349 0.524585
vt 0.413764 0.224852
vt 0.357644 0.224852
vt 0.649651 0.524585
vt 0.725349 0.524585
vt 0.235128 0.224852
vt 0.267191 0.224852
vt 0.267191 0.224852
vt 0.235128 0.224852
vt 0.267191 0.224852
vt 0.235128 0.224852
vt 0.267191 0.224852
vt 0.235128 0.224852
vt 0.267191 0.224852
vt 0.235128 0.224852
vt 0.267191 0.224852
vt 0.235128 0.224852
vt 0.267191 0.224852
vt 0.235128 0.224852
vt 0.267191 0.224852
vt 0.235128 0.224852
vt 0.357644 0.068233
vt 0.413764 0.068233
vt 0.357644 0.068233
vt 0.413764 0.068233
vt 0.357644 0.068233
vt 0.413764 0.068233
vt 0.413764 0.068233
vt 0.357644 0.068233
vt 0.357644 0.068233
vt 0.413764 0.068233
vt 0.413764 0.068233
vt 0.357644 0.068233
vt 0.413764 0.068233
vt 0.357644 0.068233
vt 0.413764 0.068233
vt 0.357644 0.068233
s 1
usemtl 
f 13/45/1 25/89/1 12/41/1
f 13/45/1 32/117/1 25/89/1
f 11/37/2 27/97/2 10/33/2
f 11/37/2 26/93/2 27/97/2
f 31/113/3 15/53/3 30/109/3
f 31/113/3 14/49/3 15/53/3
f 11/38/4 25/90/5 26/94/5
f 11/38/4 12/42/4 25/90/5
f 9/29/6 27/98/7 28/101/7
f 9/29/6 10/34/6 27/98/7
f 15/54/8 29/105/9 30/110/9
f 15/54/8 16/57/8 29/105/9
f 13/46/10 31/114/11 32/118/11
f 13/46/10 14/50/10 31/114/11
f 4/11/12 10/35/12 9/30/12
f 4/11/12 3/8/12 10/35/12
f 2/5/2 10/36/2 3/9/2
f 2/5/2 11/39/2 10/36/2
f 2/6/13 12/43/13 11/40/13
f 2/6/13 1/1/13 12/43/13
f 8/25/14 12/44/14 1/2/14
f 8/25/14 13/47/14 12/44/14
f 8/26/15 14/51/15 13/48/15
f 8/26/15 7/22/15 14/51/15
f 14/52/3 6/19/3 15/55/3
f 14/52/3 7/23/3 6/19/3
f 6/20/16 16/58/16 15/56/16
f 6/20/16 5/15/16 16/58/16
f 32/119/17 20/71/17 25/91/17
f 32/119/17 21/75/17 20/71/17
f 20/72/18 26/95/18 25/92/18
f 20/72/18 19/68/18 26/95/18
f 26/96/2 18/65/2 27/99/2
f 26/96/2 19/69/2 18/65/2
f 18/66/19 28/102/19 27/100/19
f 18/66/19 17/61/19 28/102/19
f 24/85/20 30/111/20 29/106/20
f 24/85/20 23/82/20 30/111/20
f 22/79/3 30/112/3 23/83/3
f 22/79/3 31/115/3 30/112/3
f 22/80/21 32/120/21 31/116/21
f 22/80/21 21/76/21 32/120/21
f 3/10/22 33/121/23 34/124/24
f 3/10/22 4/12/25 33/121/23
f 5/16/26 36/129/27 35/126/28
f 5/16/26 6/21/29 36/129/27
f 37/131/30 3/10/31 34/124/32
f 37/131/30 2/7/33 3/10/31
f 7/24/34 36/129/34 6/21/35
f 7/24/34 38/133/36 36/129/34
f 40/138/37 1/3/37 39/135/37
f 40/138/37 8/27/37 1/3/37
f 1/4/38 37/131/39 39/136/40
f 1/4/38 2/7/41 37/131/39
f 7/24/42 40/139/43 38/133/44
f 7/24/42 8/28/45 40/139/43
f 23/84/46 41/141/47 42/143/48
f 23/84/46 24/86/48 41/141/47
f 17/62/49 44/148/50 43/145/50
f 17/62/49 18/67/50 44/148/50
f 19/70/51 44/148/51 18/67/51
f 19/70/51 45/150/51 44/148/51
f 46/152/52 23/84/52 42/143/52
f 46/152/52 22/81/52 23/84/52
f 21/77/53 46/152/54 47/154/54
f 21/77/53 22/81/55 46/152/54
f 19/70/56 48/156/57 45/150/57
f 19/70/56 20/73/57 48/156/57
f 21/78/58 48/157/58 20/74/58
f 21/78/58 47/155/59 48/157/58
f 35/127/60 4/13/60 5/17/60
f 35/127/60 33/122/60 4/13/60
f 5/18/61 9/31/61 16/59/61
f 5/18/61 4/14/61 9/31/61
f 16/60/62 28/103/62 29/107/62
f 16/60/62 9/32/62 28/103/62
f 29/108/63 17/63/63 24/87/63
f 29/108/63 28/104/63 17/63/63
f 24/88/64 43/146/64 41/142/64
f 24/88/64 17/64/64 43/146/64
f 48/158/65 46/153/65 45/151/65
f 48/158/65 47/155/65 46/153/65
f 37/132/66 40/140/66 39/137/66
f 37/132/66 38/134/66 40/140/66
f 36/130/66 37/132/66 34/125/66
f 36/130/66 38/134/66 37/132/66
f 36/130/66 33/123/66 35/128/66
f 36/130/66 34/125/66 33/123/66
f 44/149/65 46/153/65 42/144/65
f 44/149/65 45/151/65 46/153/65
f 44/149/65 41/142/65 43/147/65
f 44/149/65 42/144/65 41/142/65
f 77/247/67 57/191/67 58/195/67
f 77/247/67 78/249/67 57/191/67
f 75/243/68 59/199/68 60/203/68
f 75/243/68 76/245/68 59/199/68
f 61/207/69 75/244/69 60/204/69
f 61/207/69 74/241/69 75/244/69
f 76/246/70 58/196/70 59/200/70
f 76/246/70 77/248/70 58/196/70
f 78/250/71 64/219/71 57/192/71
f 78/250/71 79/251/71 64/219/71
f 73/239/72 61/208/72 62/211/72
f 73/239/72 74/242/72 61/208/72
f 79/252/73 63/215/73 64/220/73
f 79/252/73 80/253/73 63/215/73
f 80/254/74 62/212/74 63/216/74
f 80/254/74 73/240/74 62/212/74
f 58/197/75 53/175/75 54/179/75
f 58/197/75 57/193/75 53/175/75
f 55/183/76 58/198/76 54/180/76
f 55/183/76 59/201/76 58/198/76
f 60/205/77 55/184/77 56/187/77
f 60/205/77 59/202/77 55/184/77
f 49/159/78 60/206/78 56/188/78
f 49/159/78 61/209/78 60/206/78
f 62/213/79 49/160/79 50/163/79
f 62/213/79 61/210/79 49/160/79
f 51/167/80 62/214/80 50/164/80
f 51/167/80 63/217/80 62/214/80
f 64/221/81 51/168/81 52/171/81
f 64/221/81 63/218/81 51/168/81
f 53/176/82 64/222/82 52/172/82
f 53/176/82 57/194/82 64/222/82
f 65/223/3 49/161/3 66/225/3
f 65/223/3 50/165/3 49/161/3
f 67/227/83 49/162/83 56/189/83
f 67/227/83 66/226/83 49/162/83
f 68/229/84 56/190/84 55/185/84
f 68/229/84 67/228/84 56/190/84
f 69/231/85 55/186/85 54/181/85
f 69/231/85 68/230/85 55/186/85
f 70/233/2 54/182/2 53/177/2
f 70/233/2 69/232/2 54/182/2
f 71/235/86 53/178/86 52/173/86
f 71/235/86 70/234/86 53/178/86
f 72/237/87 52/174/87 51/169/87
f 72/237/87 71/236/87 52/174/87
f 65/224/88 51/170/88 50/166/88
f 65/224/88 72/238/88 51/170/88
