g enemyCrusherShadow_Geo
v -0.36402136 0.42 -0.01
v -0.42 0.36402136 -0.01
v -0.42 -0.36402136 -0.01
v -0.36402136 -0.42 -0.01
v 0.36402136 -0.42 -0.01
v 0.36402145 0.42 -0.01
v 0.41999993 -0.36402136 -0.01
v 0.42 0.36402136 -0.01
vt 0.48924494 0.6079187
vt 0.48839614 0.6087935
vt 0.48839614 0.62013435
vt 0.48924494 0.6210091
vt 0.50043416 0.6210091
vt 0.50043416 0.6079187
vt 0.5012829 0.62013435
vt 0.5012829 0.6087935
vn -0 0 -1
vn -0 0 -1
vn -0 0 -1
vn -0 0 -1
vn -0 0 -1
vn -0 0 -1
vn -0 0 -1
vn -0 0 -1
g enemyCrusherShadow_Geo_0
f 4/4/4 3/3/3 2/2/2
f 1/1/1 4/4/4 2/2/2
f 1/1/1 6/6/6 4/4/4
f 6/6/6 5/5/5 4/4/4
f 6/6/6 8/8/8 5/5/5
f 8/8/8 7/7/7 5/5/5
