o enemyRiserPassiveParts_Geo
v -0.200000 -0.615000 -0.200000
v 0.000000 0.010000 -0.000000
v -0.200000 0.010000 -0.200000
v 0.200000 -0.615000 -0.200000
v 0.200000 0.010000 -0.200000
v 0.200000 -0.615000 0.200000
v 0.200000 0.010000 0.200000
v -0.200000 -0.615000 0.200000
v -0.200000 0.010000 0.200000
v -0.200000 0.010000 -0.200000
v -0.200000 0.010000 -0.200000
v -0.200000 0.010000 0.200000
v -0.200000 -0.615000 -0.200000
v 0.200000 0.010000 -0.200000
v 0.200000 0.010000 0.200000
v 0.200000 0.010000 -0.200000
v 0.200000 -0.615000 -0.200000
v -0.400000 -0.615000 -0.300000
v -0.300000 -0.615000 -0.400000
v -0.400000 0.010000 -0.300000
v -0.300000 0.010000 -0.200000
v -0.200000 0.010000 -0.300000
v -0.300000 0.010000 -0.400000
v 0.300000 -0.615000 -0.400000
v 0.400000 -0.615000 -0.300000
v 0.300000 0.010000 -0.400000
v 0.200000 0.010000 -0.300000
v 0.300000 0.010000 -0.200000
v 0.400000 0.010000 -0.300000
v 0.400000 -0.615000 0.300000
v 0.300000 -0.615000 0.400000
v 0.400000 0.010000 0.300000
v 0.300000 0.010000 0.200000
v 0.200000 0.010000 0.300000
v 0.300000 0.010000 0.400000
v -0.300000 -0.615000 0.400000
v -0.400000 -0.615000 0.300000
v -0.300000 0.010000 0.400000
v -0.200000 0.010000 0.300000
v -0.300000 0.010000 0.200000
v -0.400000 0.010000 0.300000
v -0.400000 0.010000 -0.300000
v -0.400000 0.010000 0.300000
v -0.300000 0.010000 -0.400000
v 0.300000 0.010000 -0.400000
v 0.400000 0.010000 -0.300000
v 0.300000 0.010000 -0.400000
v 0.300000 -0.615000 -0.400000
v 0.400000 0.010000 0.300000
v 0.300000 0.010000 0.400000
v -0.300000 0.010000 0.400000
v -0.400000 0.010000 -0.300000
v -0.400000 -0.615000 -0.300000
v -0.300000 0.010000 -0.400000
v -0.300000 -0.615000 -0.400000
v 0.400000 0.010000 -0.300000
v 0.400000 -0.615000 -0.300000
v 0.400000 0.010000 0.300000
v 0.400000 -0.615000 0.300000
v -0.400000 -0.615000 0.300000
v -0.400000 0.010000 0.300000
v -0.300000 -0.615000 -0.200000
v -0.200000 -0.615000 -0.300000
v -0.300000 0.010000 -0.200000
v -0.200000 0.010000 -0.200000
v -0.200000 0.010000 -0.300000
v 0.200000 -0.615000 -0.300000
v 0.300000 -0.615000 -0.200000
v 0.200000 0.010000 -0.300000
v 0.200000 0.010000 -0.200000
v 0.300000 0.010000 -0.200000
v 0.300000 -0.615000 0.200000
v 0.200000 -0.615000 0.300000
v 0.300000 0.010000 0.200000
v 0.200000 0.010000 0.200000
v 0.200000 0.010000 0.300000
v -0.200000 -0.615000 0.300000
v -0.300000 -0.615000 0.200000
v -0.200000 0.010000 0.300000
v -0.200000 0.010000 0.200000
v -0.300000 0.010000 0.200000
v -0.300000 0.010000 -0.200000
v -0.300000 0.010000 0.200000
v -0.200000 0.010000 -0.300000
v 0.200000 0.010000 -0.300000
v 0.300000 0.010000 -0.200000
v 0.200000 0.010000 -0.300000
v 0.200000 -0.615000 -0.300000
v 0.300000 0.010000 0.200000
v 0.200000 0.010000 0.300000
v -0.200000 0.010000 0.300000
v -0.300000 0.010000 -0.200000
v -0.300000 -0.615000 -0.200000
v -0.200000 0.010000 -0.300000
v -0.200000 -0.615000 -0.300000
v 0.300000 0.010000 -0.200000
v 0.300000 -0.615000 -0.200000
v 0.300000 0.010000 0.200000
v 0.300000 -0.615000 0.200000
v -0.300000 -0.615000 0.200000
v -0.300000 0.010000 0.200000
vn -0.0000 1.0000 -0.0000
vn -0.0000 -0.0000 -1.0000
vn -1.0000 -0.0000 -0.0000
vn 1.0000 -0.0000 -0.0000
vn -0.7071 -0.0000 -0.7071
vn 0.7071 -0.0000 -0.7071
vn 0.7071 -0.0000 0.7071
vn -0.7071 -0.0000 0.7071
vt 0.224877 0.022782
vt 0.624897 0.123583
vt 0.675275 0.073206
vt 0.024414 0.022782
vt 0.024414 0.224486
vt 0.429509 0.022782
vt 0.574519 0.173961
vt 0.429510 0.022782
vt 0.675275 0.173961
vt 0.224877 0.224486
vt 0.274062 0.224486
vt 0.429510 0.224486
vt 0.274062 0.022782
vt 0.574519 0.073206
vt 0.429509 0.224486
vt 0.274062 0.224486
vt 0.274062 0.022782
vt 0.274062 0.022782
vt 0.224877 0.022782
vt 0.725652 0.048017
vt 0.700463 0.073206
vt 0.675275 0.048017
vt 0.700463 0.022782
vt 0.024414 0.022782
vt 0.274062 0.022782
vt 0.549330 0.022782
vt 0.574519 0.048017
vt 0.549330 0.073206
vt 0.524142 0.048017
vt 0.429511 0.022782
vt 0.475586 0.022782
vt 0.524142 0.199150
vt 0.549330 0.173961
vt 0.574519 0.199150
vt 0.549330 0.224486
vt 0.475586 0.022782
vt 0.429509 0.022782
vt 0.700463 0.224486
vt 0.675275 0.199150
vt 0.700463 0.173961
vt 0.725652 0.199150
vt 0.274062 0.224486
vt 0.429509 0.224486
vt 0.224877 0.224486
vt 0.024414 0.224486
vt 0.274062 0.224486
vt 0.224877 0.224486
vt 0.224877 0.022782
vt 0.429511 0.224486
vt 0.475586 0.224486
vt 0.475586 0.224486
vt 0.274062 0.224486
vt 0.274062 0.022782
vt 0.224877 0.224486
vt 0.224877 0.022782
vt 0.274062 0.224486
vt 0.274062 0.022782
vt 0.429511 0.224486
vt 0.429511 0.022782
vt 0.429509 0.022782
vt 0.429509 0.224486
vt 0.274062 0.022782
vt 0.224877 0.022782
vt 0.700463 0.073206
vt 0.675275 0.073206
vt 0.675275 0.048017
vt 0.024414 0.022782
vt 0.274062 0.022782
vt 0.574519 0.048017
vt 0.574519 0.073206
vt 0.549330 0.073206
vt 0.429509 0.022782
vt 0.475586 0.022782
vt 0.549330 0.173961
vt 0.574519 0.173961
vt 0.574519 0.199150
vt 0.475586 0.022782
vt 0.429510 0.022782
vt 0.675275 0.199150
vt 0.675275 0.173961
vt 0.700463 0.173961
vt 0.274062 0.224486
vt 0.429510 0.224486
vt 0.224877 0.224486
vt 0.024414 0.224486
vt 0.274062 0.224486
vt 0.224877 0.224486
vt 0.224877 0.022782
vt 0.429509 0.224486
vt 0.475586 0.224486
vt 0.475586 0.224486
vt 0.274062 0.224486
vt 0.274062 0.022782
vt 0.224877 0.224486
vt 0.224877 0.022782
vt 0.274062 0.224486
vt 0.274062 0.022782
vt 0.429509 0.224486
vt 0.429509 0.022782
vt 0.429510 0.022782
vt 0.429510 0.224486
s 0
f 3/3/1 9/9/1 2/2/1
f 2/2/1 9/9/1 7/7/1
f 2/2/1 7/7/1 14/14/1
f 2/2/1 14/14/1 3/3/1
f 10/10/2 5/5/2 4/4/2
f 1/1/2 10/10/2 4/4/2
f 8/8/3 12/12/3 11/11/3
f 13/13/3 8/8/3 11/11/3
f 16/16/4 15/15/4 6/6/4
f 17/17/4 16/16/4 6/6/4
f 20/20/1 41/41/1 40/40/1
f 21/21/1 20/20/1 40/40/1
f 20/20/1 21/21/1 22/22/1
f 23/23/1 20/20/1 22/22/1
f 22/22/1 27/27/1 23/23/1
f 27/27/1 26/26/1 23/23/1
f 26/26/1 27/27/1 28/28/1
f 29/29/1 26/26/1 28/28/1
f 28/28/1 33/33/1 29/29/1
f 33/33/1 32/32/1 29/29/1
f 32/32/1 33/33/1 34/34/1
f 35/35/1 32/32/1 34/34/1
f 34/34/1 39/39/1 35/35/1
f 39/39/1 38/38/1 35/35/1
f 38/38/1 39/39/1 40/40/1
f 41/41/1 38/38/1 40/40/1
f 43/43/3 42/42/3 18/18/3
f 37/37/3 43/43/3 18/18/3
f 52/52/5 44/44/5 19/19/5
f 53/53/5 52/52/5 19/19/5
f 54/54/2 45/45/2 24/24/2
f 55/55/2 54/54/2 24/24/2
f 47/47/6 46/46/6 25/25/6
f 48/48/6 47/47/6 25/25/6
f 56/56/4 49/49/4 30/30/4
f 57/57/4 56/56/4 30/30/4
f 58/58/7 50/50/7 31/31/7
f 59/59/7 58/58/7 31/31/7
f 51/51/8 61/61/8 60/60/8
f 36/36/8 51/51/8 60/60/8
f 81/81/1 80/80/1 65/65/1
f 64/64/1 81/81/1 65/65/1
f 64/64/1 65/65/1 66/66/1
f 65/65/1 70/70/1 66/66/1
f 70/70/1 69/69/1 66/66/1
f 69/69/1 70/70/1 71/71/1
f 70/70/1 75/75/1 71/71/1
f 75/75/1 74/74/1 71/71/1
f 74/74/1 75/75/1 76/76/1
f 75/75/1 80/80/1 76/76/1
f 80/80/1 79/79/1 76/76/1
f 79/79/1 80/80/1 81/81/1
f 78/78/3 83/83/3 82/82/3
f 62/62/3 78/78/3 82/82/3
f 92/92/5 84/84/5 63/63/5
f 93/93/5 92/92/5 63/63/5
f 94/94/2 85/85/2 67/67/2
f 95/95/2 94/94/2 67/67/2
f 87/87/6 86/86/6 68/68/6
f 88/88/6 87/87/6 68/68/6
f 96/96/4 89/89/4 72/72/4
f 97/97/4 96/96/4 72/72/4
f 98/98/7 90/90/7 73/73/7
f 99/99/7 98/98/7 73/73/7
f 91/91/8 101/101/8 100/100/8
f 77/77/8 91/91/8 100/100/8
