o enemyShinto
v 0.550000 0.002276 0.225024
v 0.774977 0.002276 0.450000
v 1.450000 0.002276 0.225024
v 1.225022 0.002276 0.450000
v 0.774977 0.195721 0.225024
v 0.550000 0.195721 0.225024
v 0.774977 0.195721 0.450000
v 1.450000 0.195721 0.225024
v 1.225022 0.195721 0.225024
v 1.225022 0.195721 0.450000
v 0.774977 0.195721 -0.450000
v 0.550000 0.195721 -0.225021
v 0.774977 0.195721 -0.225021
v 1.450000 0.195721 -0.225021
v 1.225022 0.195721 -0.450000
v 1.225022 0.195721 -0.225021
v 0.550000 0.002276 -0.225021
v 0.774977 0.002276 -0.450000
v 1.450000 0.002276 -0.225021
v 1.225022 0.002276 -0.450000
v -1.450000 0.002276 0.225024
v -0.550000 0.002276 0.225024
v -1.225023 0.195721 0.225024
v -1.450000 0.195721 0.225024
v -1.225023 0.195721 0.450000
v -0.550000 0.195721 0.225024
v -0.774978 0.195721 0.225024
v -0.774978 0.195721 0.450000
v -1.225023 0.195721 -0.450000
v -1.450000 0.195721 -0.225021
v -1.225023 0.195721 -0.225021
v -0.550000 0.195721 -0.225021
v -0.774978 0.195721 -0.450000
v -0.774978 0.195721 -0.225021
v -1.450000 0.002276 -0.225021
v -1.225023 0.002276 -0.450000
v -0.550000 0.002276 -0.225021
v -0.774978 0.002276 -0.450000
v -1.350000 0.175721 0.175019
v -1.175018 0.175721 0.350000
v -0.650000 0.175721 0.175019
v -0.824982 0.175721 0.350000
v -1.175018 0.370615 0.175019
v -1.350000 0.370615 0.175019
v -1.175018 0.370615 0.350000
v -0.650000 0.370615 0.175019
v -0.824982 0.370615 0.175019
v -0.824982 0.370615 0.350000
v -1.175018 0.370615 -0.350000
v -1.350000 0.370615 -0.175017
v -1.175018 0.370615 -0.175017
v -0.650000 0.370615 -0.175017
v -0.824982 0.370615 -0.350000
v -0.824982 0.370615 -0.175017
v -1.350000 0.175721 -0.175016
v -1.175018 0.175721 -0.350000
v -0.650000 0.175721 -0.175016
v -0.824982 0.175721 -0.350000
v 0.650000 0.175721 0.175019
v 0.824982 0.175721 0.350000
v 1.350000 0.175721 0.175019
v 1.175018 0.175721 0.350000
v 0.824982 0.370615 0.175019
v 0.650000 0.370615 0.175019
v 0.824982 0.370615 0.350000
v 1.350000 0.370615 0.175019
v 1.175018 0.370615 0.175019
v 1.175018 0.370615 0.350000
v 0.824982 0.370615 -0.350000
v 0.650000 0.370615 -0.175017
v 0.824982 0.370615 -0.175017
v 1.350000 0.370615 -0.175017
v 1.175018 0.370615 -0.350000
v 1.175018 0.370615 -0.175017
v 0.650000 0.175721 -0.175016
v 0.824982 0.175721 -0.350000
v 1.350000 0.175721 -0.175016
v 1.175018 0.175721 -0.350000
v -1.500000 1.795243 0.320000
v 1.500000 1.824501 0.280000
v -1.500000 2.263379 0.320000
v 1.500000 2.234121 0.280000
v -1.500000 2.263379 -0.320000
v 1.500000 2.234121 -0.280000
v -1.500000 1.795243 -0.320000
v 1.500000 1.824501 -0.280000
v 1.359893 1.742514 0.358416
v -0.649999 2.280312 0.400000
v -0.649999 2.321896 0.358416
v 0.650001 2.321896 0.358416
v 0.650001 2.280312 0.400000
v 1.308417 2.280312 0.400000
v 1.359893 2.316108 0.358416
v -0.649999 2.255212 -0.400000
v -0.649999 2.321896 -0.358416
v 0.650001 2.255212 -0.400000
v 0.650001 2.321896 -0.358416
v 1.288052 2.255212 -0.400000
v 1.359893 2.316108 -0.358416
v -0.649999 1.803410 -0.400000
v -0.649999 1.736725 -0.358416
v 0.650001 1.736725 -0.358416
v 0.650001 1.803410 -0.400000
v 1.288052 1.803410 -0.400000
v 1.359893 1.742514 -0.358416
v -1.365882 1.742921 0.358416
v -1.308416 2.280312 0.400000
v -1.365882 2.315700 0.358416
v -1.365882 2.315700 -0.358416
v -1.288051 2.255212 -0.400000
v -1.288051 1.803410 -0.400000
v -1.365882 1.742921 -0.358416
v -1.220500 0.190615 0.110262
v -1.110262 0.190615 0.220500
v -0.779500 0.190615 0.110262
v -0.889739 0.190615 0.220500
v -1.220500 1.075111 0.110262
v -1.110262 1.075111 0.220500
v -0.779500 1.075111 0.110262
v -0.889739 1.075111 0.220500
v -1.110262 1.075111 -0.220500
v -1.220500 1.075111 -0.110261
v -0.779500 1.075111 -0.110261
v -0.889739 1.075111 -0.220500
v -1.220500 0.190615 -0.110261
v -1.110262 0.190615 -0.220500
v -0.779500 0.190615 -0.110261
v -0.889739 0.190615 -0.220500
v -1.198450 1.172256 0.099236
v -1.099236 1.172256 0.198450
v -0.801550 1.172256 0.099236
v -0.900765 1.172256 0.198450
v -1.198450 1.736725 0.099236
v -1.099236 1.736725 0.198450
v -0.801550 1.736725 0.099236
v -0.900765 1.736725 0.198450
v -1.099236 1.736725 -0.198450
v -1.198450 1.736725 -0.099235
v -0.801550 1.736725 -0.099235
v -0.900765 1.736725 -0.198450
v -1.198450 1.172256 -0.099235
v -1.099236 1.172256 -0.198450
v -0.801550 1.172256 -0.099235
v -0.900765 1.172256 -0.198450
v 0.779500 0.190615 0.110262
v 0.889738 0.190615 0.220500
v 1.220500 0.190615 0.110262
v 1.110261 0.190615 0.220500
v 0.779500 1.075111 0.110262
v 0.889738 1.075111 0.220500
v 1.220500 1.075111 0.110262
v 1.110261 1.075111 0.220500
v 0.889738 1.075111 -0.220500
v 0.779500 1.075111 -0.110261
v 1.220500 1.075111 -0.110261
v 1.110261 1.075111 -0.220500
v 0.779500 0.190615 -0.110261
v 0.889738 0.190615 -0.220500
v 1.220500 0.190615 -0.110261
v 1.110261 0.190615 -0.220500
v 0.801550 1.172256 0.099236
v 0.900764 1.172256 0.198450
v 1.198450 1.172256 0.099236
v 1.099235 1.172256 0.198450
v 0.801550 1.736725 0.099236
v 0.900764 1.736725 0.198450
v 1.198450 1.736725 0.099236
v 1.099235 1.736725 0.198450
v 0.900764 1.736725 -0.198450
v 0.801550 1.736725 -0.099235
v 1.198450 1.736725 -0.099235
v 1.099235 1.736725 -0.198450
v 0.801550 1.172256 -0.099235
v 0.900764 1.172256 -0.198450
v 1.198450 1.172256 -0.099235
v 1.099235 1.172256 -0.198450
vn -1.0000 -0.0000 -0.0000
vn 1.0000 -0.0000 -0.0000
vn -0.0000 -0.0000 -1.0000
vn -0.7071 -0.0000 0.7071
vn 0.7071 -0.0000 0.7071
vn -0.0000 1.0000 -0.0000
vn -0.7071 -0.0000 -0.7071
vn 0.7071 -0.0000 -0.7071
vn -0.0031 1.0000 -0.0000
vn 0.0029 1.0000 -0.0000
vn -0.0030 1.0000 -0.0000
vn 0.0030 1.0000 -0.0000
vn 0.0723 0.9974 -0.0000
vn -0.0577 0.9983 -0.0000
vn -0.0011 0.7159 0.6982
vn -0.0033 0.7328 0.6805
vn 0.0010 0.7153 0.6988
vn 0.0031 0.7312 0.6822
vn -0.0025 0.5463 -0.8376
vn -0.0025 0.5462 -0.8376
vn -0.0000 0.5291 -0.8485
vn -0.0000 0.5292 -0.8485
vn 0.0023 0.5452 -0.8383
vn 0.5010 -0.0000 -0.8655
vn 0.4924 -0.0000 -0.8704
vn -0.0025 -0.5463 -0.8376
vn -0.0025 -0.5462 -0.8376
vn -0.0000 -0.5291 -0.8485
vn 0.0023 -0.5452 -0.8383
vn -0.3422 -0.0000 -0.9396
vn -0.4712 -0.0000 -0.8820
vn -0.3634 0.9316 -0.0000
vn -0.2754 -0.0000 -0.9613
vn -0.3634 -0.9316 -0.0000
vn 0.5051 0.8631 -0.0000
vn 0.4884 -0.0000 -0.8726
vn 0.5051 -0.8631 -0.0000
vn 0.6875 0.2341 -0.6875
vn -0.0000 0.2214 -0.9752
vn -0.6875 0.2341 -0.6875
vn -0.9752 0.2214 -0.0000
vn -0.6875 0.2341 0.6875
vn 0.9752 0.2214 -0.0000
vn 0.6875 0.2341 0.6875
vt 0.351058 0.274314
vt 0.273777 0.274314
vt 0.351058 0.274314
vt 0.273778 0.274314
vt 0.351058 0.274314
vt 0.273778 0.274314
vt 0.541393 0.044162
vt 0.351058 0.350590
vt 0.273777 0.350590
vt 0.525190 0.051147
vt 0.351058 0.350590
vt 0.551229 0.025928
vt 0.273778 0.350590
vt 0.351058 0.350590
vt 0.724859 0.051147
vt 0.705185 0.044162
vt 0.273778 0.350590
vt 0.700634 0.026528
vt 0.351058 0.350590
vt 0.551229 0.224113
vt 0.273777 0.350590
vt 0.273777 0.350590
vt 0.525478 0.200417
vt 0.351058 0.350590
vt 0.541393 0.204347
vt 0.351058 0.350590
vt 0.724859 0.200417
vt 0.273778 0.350590
vt 0.273778 0.350590
vt 0.698469 0.224113
vt 0.351058 0.350590
vt 0.705185 0.204347
vt 0.273777 0.274314
vt 0.351058 0.274314
vt 0.351058 0.274314
vt 0.273777 0.274314
vt 0.351058 0.274314
vt 0.273778 0.274314
vt 0.273778 0.274314
vt 0.351058 0.274314
vt 0.351058 0.274314
vt 0.273778 0.274314
vt 0.541393 0.044162
vt 0.351058 0.350590
vt 0.525190 0.051147
vt 0.551229 0.025928
vt 0.273778 0.350590
vt 0.724859 0.051147
vt 0.705185 0.044162
vt 0.700634 0.026528
vt 0.351058 0.350590
vt 0.551229 0.224113
vt 0.273777 0.350590
vt 0.273777 0.350590
vt 0.525478 0.200417
vt 0.351058 0.350590
vt 0.541393 0.204347
vt 0.351058 0.350590
vt 0.724859 0.200417
vt 0.273778 0.350590
vt 0.273778 0.350590
vt 0.698469 0.224113
vt 0.351058 0.350590
vt 0.705185 0.204347
vt 0.273777 0.274314
vt 0.351058 0.274314
vt 0.351058 0.274314
vt 0.273777 0.274314
vt 0.351058 0.274314
vt 0.273778 0.274314
vt 0.273778 0.274314
vt 0.351058 0.274314
vt 0.725014 0.274525
vt 0.649526 0.274525
vt 0.725014 0.274525
vt 0.649526 0.274525
vt 0.725014 0.274525
vt 0.649526 0.274525
vt 0.541393 0.044162
vt 0.725014 0.350751
vt 0.525190 0.051147
vt 0.649526 0.350751
vt 0.551229 0.025928
vt 0.725014 0.350751
vt 0.649526 0.350751
vt 0.724859 0.051147
vt 0.725014 0.350751
vt 0.705185 0.044162
vt 0.700634 0.026528
vt 0.649526 0.350751
vt 0.551229 0.224543
vt 0.725014 0.350751
vt 0.649526 0.350751
vt 0.649526 0.350751
vt 0.525190 0.200417
vt 0.725014 0.350751
vt 0.541393 0.204347
vt 0.725014 0.350751
vt 0.724859 0.200417
vt 0.649526 0.350751
vt 0.698469 0.224011
vt 0.649526 0.350751
vt 0.725014 0.350751
vt 0.705185 0.204347
vt 0.649526 0.274525
vt 0.725014 0.274525
vt 0.725014 0.274525
vt 0.649526 0.274525
vt 0.725014 0.274525
vt 0.649526 0.274525
vt 0.649526 0.274525
vt 0.725014 0.274525
vt 0.725014 0.274525
vt 0.649526 0.274525
vt 0.725014 0.274525
vt 0.649526 0.274525
vt 0.725014 0.274525
vt 0.649526 0.274525
vt 0.541393 0.044162
vt 0.725014 0.350751
vt 0.525190 0.051147
vt 0.649526 0.350751
vt 0.551229 0.025928
vt 0.725014 0.350751
vt 0.649526 0.350751
vt 0.724859 0.051147
vt 0.725014 0.350751
vt 0.705185 0.044162
vt 0.700634 0.026528
vt 0.649526 0.350751
vt 0.551229 0.224543
vt 0.725014 0.350751
vt 0.649526 0.350751
vt 0.649526 0.350751
vt 0.525190 0.200417
vt 0.725014 0.350751
vt 0.541393 0.204347
vt 0.725014 0.350751
vt 0.724859 0.200417
vt 0.649526 0.350751
vt 0.698469 0.224011
vt 0.649526 0.350751
vt 0.725014 0.350751
vt 0.705185 0.204347
vt 0.649526 0.274525
vt 0.725014 0.274525
vt 0.725014 0.274525
vt 0.649526 0.274525
vt 0.725014 0.274525
vt 0.649526 0.274525
vt 0.649526 0.274525
vt 0.725014 0.274525
vt 0.408362 0.413490
vt 0.274169 0.399297
vt 0.408362 0.413490
vt 0.350245 0.399297
vt 0.408362 0.467137
vt 0.407923 0.411465
vt 0.408362 0.467137
vt 0.461954 0.411465
vt 0.462257 0.467137
vt 0.407923 0.465478
vt 0.285860 0.464509
vt 0.462257 0.467137
vt 0.461954 0.465478
vt 0.339892 0.464509
vt 0.462257 0.413490
vt 0.285860 0.410496
vt 0.274169 0.475688
vt 0.462257 0.413490
vt 0.339892 0.410496
vt 0.350245 0.475688
vt 0.279186 0.402512
vt 0.300420 0.335693
vt 0.301751 0.335693
vt 0.298511 0.285502
vt 0.301005 0.339532
vt 0.326785 0.285502
vt 0.324330 0.339532
vt 0.323584 0.335693
vt 0.324914 0.335693
vt 0.333586 0.335693
vt 0.339146 0.285988
vt 0.334170 0.339005
vt 0.407923 0.411465
vt 0.299932 0.339787
vt 0.296410 0.337045
vt 0.298511 0.339599
vt 0.296410 0.282278
vt 0.330043 0.339787
vt 0.324427 0.337046
vt 0.326785 0.339599
vt 0.324427 0.282278
vt 0.342038 0.339787
vt 0.337664 0.337045
vt 0.461653 0.464174
vt 0.339146 0.339599
vt 0.337664 0.282278
vt 0.461653 0.410449
vt 0.407923 0.465478
vt 0.285860 0.464509
vt 0.299932 0.285263
vt 0.298254 0.463431
vt 0.298254 0.410045
vt 0.326860 0.410045
vt 0.330043 0.285263
vt 0.326860 0.463431
vt 0.342038 0.285263
vt 0.408559 0.464174
vt 0.339935 0.463431
vt 0.408559 0.410449
vt 0.339935 0.410045
vt 0.285860 0.410496
vt 0.279186 0.471095
vt 0.342190 0.402459
vt 0.291749 0.335693
vt 0.285888 0.285487
vt 0.291165 0.338972
vt 0.461954 0.411465
vt 0.285888 0.339599
vt 0.284522 0.282278
vt 0.408559 0.410449
vt 0.461953 0.465478
vt 0.339892 0.464509
vt 0.288214 0.339787
vt 0.284522 0.337045
vt 0.408559 0.464174
vt 0.288214 0.285263
vt 0.286823 0.463431
vt 0.461653 0.464174
vt 0.286823 0.410045
vt 0.461653 0.410449
vt 0.339892 0.410496
vt 0.342190 0.471736
vt 0.600769 0.399921
vt 0.524188 0.399921
vt 0.600769 0.399921
vt 0.524188 0.399921
vt 0.600769 0.399921
vt 0.524188 0.399921
vt 0.600769 0.476125
vt 0.524188 0.476125
vt 0.600769 0.399921
vt 0.524188 0.399921
vt 0.600769 0.476125
vt 0.600769 0.399921
vt 0.524188 0.476125
vt 0.600769 0.476125
vt 0.524188 0.399921
vt 0.600769 0.399921
vt 0.524188 0.476125
vt 0.524188 0.399921
vt 0.600769 0.476125
vt 0.524188 0.476125
vt 0.600769 0.399921
vt 0.524188 0.399921
vt 0.524188 0.476125
vt 0.600769 0.476125
vt 0.600769 0.399921
vt 0.524188 0.399921
vt 0.600769 0.476125
vt 0.524188 0.476125
vt 0.524188 0.399921
vt 0.600769 0.399921
vt 0.524188 0.476125
vt 0.600769 0.476125
vt 0.600769 0.399921
vt 0.524188 0.399921
vt 0.524188 0.399921
vt 0.600769 0.399921
vt 0.600769 0.399921
vt 0.524188 0.399921
vt 0.600769 0.399921
vt 0.524188 0.399921
vt 0.524188 0.399921
vt 0.600769 0.399921
vt 0.600769 0.399921
vt 0.524188 0.399921
vt 0.600769 0.476125
vt 0.524188 0.476125
vt 0.600769 0.399921
vt 0.600769 0.476125
vt 0.524188 0.399921
vt 0.600769 0.399921
vt 0.524188 0.476125
vt 0.600769 0.476125
vt 0.524188 0.399921
vt 0.524188 0.476125
vt 0.600769 0.476125
vt 0.524188 0.476125
vt 0.600769 0.476125
vt 0.524188 0.476125
vt 0.600769 0.476125
vt 0.524188 0.476125
vt 0.600769 0.476125
vt 0.524188 0.476125
vt 0.524188 0.476125
vt 0.600769 0.476125
vt 0.600769 0.476125
vt 0.524188 0.476125
vt 0.524188 0.476125
vt 0.600769 0.476125
vt 0.524188 0.399921
vt 0.600769 0.399921
vt 0.600769 0.476125
vt 0.524188 0.476125
vt 0.600769 0.399921
vt 0.524188 0.399921
vt 0.600769 0.476125
vt 0.524188 0.476125
vt 0.600769 0.399921
vt 0.524188 0.399921
vt 0.524188 0.476125
vt 0.600769 0.476125
vt 0.524188 0.399921
vt 0.600769 0.399921
vt 0.600769 0.476125
vt 0.524188 0.476125
vt 0.600769 0.399921
vt 0.524188 0.399921
vt 0.600769 0.399921
vt 0.524188 0.399921
vt 0.600769 0.399921
vt 0.524188 0.399921
vt 0.600769 0.476125
vt 0.524188 0.476125
vt 0.600769 0.399921
vt 0.524188 0.399921
vt 0.600769 0.476125
vt 0.600769 0.399921
vt 0.524188 0.476125
vt 0.600769 0.476125
vt 0.524188 0.399921
vt 0.600769 0.399921
vt 0.524188 0.476125
vt 0.524188 0.399921
vt 0.600769 0.476125
vt 0.524188 0.476125
vt 0.600769 0.399921
vt 0.524188 0.399921
vt 0.524188 0.476125
vt 0.600769 0.476125
vt 0.600769 0.399921
vt 0.524188 0.399921
vt 0.600769 0.476125
vt 0.524188 0.476125
vt 0.524188 0.399921
vt 0.600769 0.399921
vt 0.524188 0.476125
vt 0.600769 0.476125
vt 0.600769 0.399921
vt 0.524188 0.399921
vt 0.524188 0.399921
vt 0.600769 0.399921
vt 0.600769 0.399921
vt 0.524188 0.399921
vt 0.600769 0.399921
vt 0.524188 0.399921
vt 0.524188 0.399921
vt 0.600769 0.399921
vt 0.600769 0.399921
vt 0.524188 0.399921
vt 0.600769 0.476125
vt 0.524188 0.476125
vt 0.600769 0.399921
vt 0.600769 0.476125
vt 0.524188 0.399921
vt 0.600769 0.399921
vt 0.524188 0.476125
vt 0.600769 0.476125
vt 0.524188 0.399921
vt 0.524188 0.476125
vt 0.600769 0.476125
vt 0.524188 0.476125
vt 0.600769 0.476125
vt 0.524188 0.476125
vt 0.600769 0.476125
vt 0.524188 0.476125
vt 0.600769 0.476125
vt 0.524188 0.476125
vt 0.524188 0.476125
vt 0.600769 0.476125
vt 0.600769 0.476125
vt 0.524188 0.476125
vt 0.524188 0.476125
vt 0.600769 0.476125
vt 0.524188 0.399921
vt 0.600769 0.399921
vt 0.600769 0.476125
vt 0.524188 0.476125
vt 0.600769 0.399921
vt 0.524188 0.399921
vt 0.600769 0.476125
vt 0.524188 0.476125
vt 0.600769 0.399921
vt 0.524188 0.399921
vt 0.524188 0.476125
vt 0.600769 0.476125
vt 0.524188 0.399921
vt 0.600769 0.399921
vt 0.600769 0.476125
vt 0.524188 0.476125
s 1
f 6/8/1 17/33/1 1/1/1
f 6/8/1 12/22/1 17/33/1
f 19/37/2 8/13/2 3/4/2
f 19/37/2 14/26/2 8/13/2
f 15/29/3 18/35/3 11/19/3
f 15/29/3 20/39/3 18/35/3
f 1/2/4 7/11/4 6/9/4
f 1/2/4 2/3/4 7/11/4
f 4/6/5 8/14/5 10/17/5
f 4/6/5 3/5/5 8/14/5
f 6/10/6 13/25/6 12/23/6
f 6/10/6 5/7/6 13/25/6
f 7/12/6 5/7/6 6/10/6
f 12/23/6 13/25/6 11/20/6
f 11/20/6 13/25/6 16/32/6
f 11/20/6 16/32/6 15/30/6
f 15/30/6 16/32/6 14/27/6
f 9/16/6 14/27/6 16/32/6
f 9/16/6 8/15/6 14/27/6
f 8/15/6 9/16/6 10/18/6
f 12/24/7 18/36/7 17/34/7
f 12/24/7 11/21/7 18/36/7
f 15/31/8 19/38/8 20/40/8
f 15/31/8 14/28/8 19/38/8
f 24/44/1 35/65/1 21/41/1
f 24/44/1 30/54/1 35/65/1
f 37/69/2 26/47/2 22/42/2
f 37/69/2 32/58/2 26/47/2
f 33/61/3 36/67/3 29/51/3
f 33/61/3 38/71/3 36/67/3
f 24/45/6 31/57/6 30/55/6
f 24/45/6 23/43/6 31/57/6
f 25/46/6 23/43/6 24/45/6
f 30/55/6 31/57/6 29/52/6
f 29/52/6 31/57/6 34/64/6
f 29/52/6 34/64/6 33/62/6
f 33/62/6 34/64/6 32/59/6
f 27/49/6 32/59/6 34/64/6
f 27/49/6 26/48/6 32/59/6
f 26/48/6 27/49/6 28/50/6
f 30/56/7 36/68/7 35/66/7
f 30/56/7 29/53/7 36/68/7
f 33/63/8 37/70/8 38/72/8
f 33/63/8 32/60/8 37/70/8
f 44/80/1 55/105/1 39/73/1
f 44/80/1 50/94/1 55/105/1
f 57/109/2 46/85/2 41/76/2
f 57/109/2 52/98/2 46/85/2
f 47/88/6 51/97/6 43/79/6
f 47/88/6 54/104/6 51/97/6
f 44/81/6 43/79/6 51/97/6
f 44/81/6 51/97/6 50/95/6
f 47/88/6 52/99/6 54/104/6
f 47/88/6 46/86/6 52/99/6
f 49/91/6 51/97/6 54/104/6
f 50/95/6 51/97/6 49/91/6
f 49/91/6 54/104/6 53/101/6
f 53/101/6 54/104/6 52/99/6
f 46/86/6 47/88/6 48/89/6
f 45/83/6 43/79/6 44/81/6
f 53/102/3 56/107/3 49/92/3
f 53/102/3 58/111/3 56/107/3
f 39/74/4 45/84/4 44/82/4
f 39/74/4 40/75/4 45/84/4
f 42/78/5 46/87/5 48/90/5
f 42/78/5 41/77/5 46/87/5
f 50/96/7 56/108/7 55/106/7
f 50/96/7 49/93/7 56/108/7
f 53/103/8 57/110/8 58/112/8
f 53/103/8 52/100/8 57/110/8
f 64/120/1 75/145/1 59/113/1
f 64/120/1 70/134/1 75/145/1
f 77/149/2 66/125/2 61/116/2
f 77/149/2 72/138/2 66/125/2
f 67/128/6 71/137/6 63/119/6
f 67/128/6 74/144/6 71/137/6
f 64/121/6 63/119/6 71/137/6
f 64/121/6 71/137/6 70/135/6
f 67/128/6 72/139/6 74/144/6
f 67/128/6 66/126/6 72/139/6
f 69/131/6 71/137/6 74/144/6
f 70/135/6 71/137/6 69/131/6
f 69/131/6 74/144/6 73/141/6
f 73/141/6 74/144/6 72/139/6
f 66/126/6 67/128/6 68/129/6
f 65/123/6 63/119/6 64/121/6
f 73/142/3 76/147/3 69/132/3
f 73/142/3 78/151/3 76/147/3
f 59/114/4 65/124/4 64/122/4
f 59/114/4 60/115/4 65/124/4
f 62/118/5 66/127/5 68/130/5
f 62/118/5 61/117/5 66/127/5
f 70/136/7 76/148/7 75/146/7
f 70/136/7 69/133/7 76/148/7
f 73/143/8 77/150/8 78/152/8
f 73/143/8 72/140/8 77/150/8
f 89/176/9 97/192/10 95/188/11
f 89/176/9 90/178/12 97/192/10
f 90/178/12 99/197/13 97/192/10
f 90/178/12 93/183/13 99/197/13
f 109/220/14 89/176/9 95/188/11
f 109/220/14 108/217/14 89/176/9
f 80/155/2 84/164/2 82/159/2
f 80/155/2 86/170/2 84/164/2
f 85/167/1 81/157/1 83/161/1
f 85/167/1 79/153/1 81/157/1
f 96/190/3 100/202/3 94/186/3
f 96/190/3 103/206/3 100/202/3
f 110/225/3 94/186/3 100/202/3
f 110/225/3 100/202/3 111/228/3
f 104/208/3 103/206/3 96/190/3
f 104/208/3 96/190/3 98/194/3
f 88/174/15 108/218/16 107/216/16
f 88/174/15 89/177/15 108/218/16
f 89/177/15 91/180/17 90/179/17
f 89/177/15 88/175/15 91/180/17
f 90/179/17 92/182/18 93/184/18
f 90/179/17 91/181/17 92/182/18
f 95/189/19 110/226/20 109/221/20
f 95/189/19 94/187/19 110/226/20
f 94/187/19 95/189/19 97/193/21
f 94/187/19 97/193/21 96/191/22
f 96/191/22 97/193/21 99/198/23
f 96/191/22 99/198/23 98/195/23
f 98/196/24 105/211/25 104/209/24
f 98/196/24 99/199/25 105/211/25
f 100/203/26 112/231/26 111/229/26
f 100/203/27 101/204/26 112/231/26
f 101/204/26 100/203/27 103/207/28
f 101/204/26 103/207/28 102/205/28
f 102/205/28 103/207/28 104/210/29
f 102/205/28 104/210/29 105/212/29
f 109/222/30 111/230/31 112/232/30
f 109/222/30 110/227/31 111/230/31
f 81/158/32 109/223/14 83/162/32
f 81/158/32 108/219/14 109/223/14
f 83/163/33 112/233/30 85/168/33
f 83/163/33 109/224/30 112/233/30
f 85/169/34 106/215/34 79/154/34
f 85/169/34 112/234/34 106/215/34
f 99/200/13 82/160/35 84/165/35
f 99/200/13 93/185/13 82/160/35
f 105/213/25 84/166/36 86/171/36
f 105/213/25 99/201/25 84/166/36
f 87/173/37 86/172/37 80/156/37
f 87/173/37 105/214/37 86/172/37
f 117/241/1 125/269/1 113/235/1
f 117/241/1 122/257/1 125/269/1
f 127/273/2 119/247/2 115/238/2
f 127/273/2 123/261/2 119/247/2
f 124/265/3 126/271/3 121/253/3
f 124/265/3 128/275/3 126/271/3
f 113/236/4 118/245/4 117/242/4
f 113/236/4 114/237/4 118/245/4
f 116/240/5 119/248/5 120/251/5
f 116/240/5 115/239/5 119/248/5
f 122/258/7 126/272/7 125/270/7
f 122/258/7 121/254/7 126/272/7
f 124/266/8 127/274/8 128/276/8
f 124/266/8 123/262/8 127/274/8
f 133/289/1 141/303/1 129/277/1
f 133/289/1 138/297/1 141/303/1
f 143/311/2 135/292/2 131/283/2
f 143/311/2 139/299/2 135/292/2
f 140/301/3 142/307/3 137/295/3
f 140/301/3 144/315/3 142/307/3
f 129/278/4 134/291/4 133/290/4
f 129/278/4 130/281/4 134/291/4
f 132/287/5 135/293/5 136/294/5
f 132/287/5 131/284/5 135/293/5
f 138/298/7 142/308/7 141/304/7
f 138/298/7 137/296/7 142/308/7
f 140/302/8 143/312/8 144/316/8
f 140/302/8 139/300/8 143/312/8
f 144/317/38 123/263/38 124/267/38
f 144/317/38 143/313/38 123/263/38
f 124/268/39 142/309/39 144/318/39
f 124/268/39 121/255/39 142/309/39
f 122/259/40 142/310/40 121/256/40
f 122/259/40 141/305/40 142/310/40
f 117/243/41 141/306/41 122/260/41
f 117/243/41 129/279/41 141/306/41
f 118/246/42 129/280/42 117/244/42
f 118/246/42 130/282/42 129/280/42
f 143/314/43 119/249/43 123/264/43
f 143/314/43 131/285/43 119/249/43
f 120/252/44 131/286/44 132/288/44
f 120/252/44 119/250/44 131/286/44
f 149/325/1 157/353/1 145/319/1
f 149/325/1 154/341/1 157/353/1
f 159/357/2 151/331/2 147/322/2
f 159/357/2 155/345/2 151/331/2
f 156/349/3 158/355/3 153/337/3
f 156/349/3 160/359/3 158/355/3
f 145/320/4 150/329/4 149/326/4
f 145/320/4 146/321/4 150/329/4
f 148/324/5 151/332/5 152/335/5
f 148/324/5 147/323/5 151/332/5
f 154/342/7 158/356/7 157/354/7
f 154/342/7 153/338/7 158/356/7
f 156/350/8 159/358/8 160/360/8
f 156/350/8 155/346/8 159/358/8
f 165/373/1 173/387/1 161/361/1
f 165/373/1 170/381/1 173/387/1
f 175/395/2 167/376/2 163/367/2
f 175/395/2 171/383/2 167/376/2
f 172/385/3 174/391/3 169/379/3
f 172/385/3 176/399/3 174/391/3
f 161/362/4 166/375/4 165/374/4
f 161/362/4 162/365/4 166/375/4
f 164/371/5 167/377/5 168/378/5
f 164/371/5 163/368/5 167/377/5
f 170/382/7 174/392/7 173/388/7
f 170/382/7 169/380/7 174/392/7
f 172/386/8 175/396/8 176/400/8
f 172/386/8 171/384/8 175/396/8
f 176/401/38 155/347/38 156/351/38
f 176/401/38 175/397/38 155/347/38
f 156/352/39 174/393/39 176/402/39
f 156/352/39 153/339/39 174/393/39
f 154/343/40 174/394/40 153/340/40
f 154/343/40 173/389/40 174/394/40
f 149/327/41 173/390/41 154/344/41
f 149/327/41 161/363/41 173/390/41
f 150/330/42 161/364/42 149/328/42
f 150/330/42 162/366/42 161/364/42
f 175/398/43 151/333/43 155/348/43
f 175/398/43 163/369/43 151/333/43
f 152/336/44 163/370/44 164/372/44
f 152/336/44 151/334/44 163/370/44
