g level_20_fanzhuanlumian01
v 0.5 -0.07967286 -0.5
v -0.5 -0.07967286 -0.5
v -0.5 -0.07967286 0.5
v 0.5 -0.07967286 0.5
v 0.5 0.079672866 -0.5
v 0.5 0.079672866 0.5
v -0.5 0.079672866 0.5
v -0.5 0.079672866 -0.5
v 0.5 0.079672866 0.5
v 0.5 -0.07967286 0.5
v -0.5 -0.07967286 0.5
v -0.5 0.079672866 0.5
v 0.5 0.079672866 -0.5
v 0.5 -0.07967286 -0.5
v 0.5 -0.07967286 0.5
v 0.5 0.079672866 0.5
v -0.5 0.079672866 -0.5
v -0.5 -0.07967286 -0.5
v 0.5 -0.07967286 -0.5
v 0.5 0.079672866 -0.5
v -0.5 0.079672866 0.5
v -0.5 -0.07967286 0.5
v -0.5 -0.07967286 -0.5
v -0.5 0.079672866 -0.5
vt 0.6274998 0.99870783
vt 0.7503502 0.99870783
vt 0.7503502 0.87683594
vt 0.6274998 0.87683594
vt 0.8750119 0.99894696
vt 0.8750119 0.8770751
vt 0.75216156 0.8770751
vt 0.75216156 0.99894696
vt 0.7348525 0.7386232
vt 0.7348525 0.6440125
vt 0.6417897 0.6440125
vt 0.6417897 0.7386232
vt 0.7348525 0.7386232
vt 0.7348525 0.6440125
vt 0.6417897 0.6440125
vt 0.6417897 0.7386232
vt 0.7348525 0.7386232
vt 0.7348525 0.6440125
vt 0.6417897 0.6440125
vt 0.6417897 0.7386232
vt 0.7348525 0.7386232
vt 0.7348525 0.6440125
vt 0.6417897 0.6440125
vt 0.6417897 0.7386232
vn -0 -1 0
vn -0 -1 0
vn -0 -1 0
vn -0 -1 0
vn -0 1 0
vn -0 1 0
vn -0 1 0
vn -0 1 0
vn -0 0 1
vn -0 0 1
vn -0 0 1
vn -0 0 1
vn 1 0 0
vn 1 0 0
vn 1 0 0
vn 1 0 0
vn -0 0 -1
vn -0 0 -1
vn -0 0 -1
vn -0 0 -1
vn -1 0 0
vn -1 0 0
vn -1 0 0
vn -1 0 0
g level_20_fanzhuanlumian01_0
f 3/3/3 2/2/2 1/1/1
f 4/4/4 3/3/3 1/1/1
f 7/7/7 6/6/6 5/5/5
f 8/8/8 7/7/7 5/5/5
f 11/11/11 10/10/10 9/9/9
f 12/12/12 11/11/11 9/9/9
f 15/15/15 14/14/14 13/13/13
f 16/16/16 15/15/15 13/13/13
f 19/19/19 18/18/18 17/17/17
f 20/20/20 19/19/19 17/17/17
f 23/23/23 22/22/22 21/21/21
f 24/24/24 23/23/23 21/21/21
