g tileT1aGeo
v -0.49999845 -0.5 0
v 0.5000014 -0.5 0
v -0.49999845 0.49999967 0
v 0.5000014 0.49999967 0
v 0.5000014 0.49999967 0.14999999
v -0.49999845 0.49999967 0.14999999
v -0.49999845 0.49999967 0
v 0.5000014 0.49999967 0
vt 0.69111323 0.6422851
vt 0.69111323 0.35771483
vt 0.97558594 0.6422851
vt 0.97558594 0.35771483
vt 0.5941876 0.59291303
vt 0.63199615 0.59291303
vt 0.63199615 0.63342226
vt 0.5941876 0.63342226
vn -0 0 -1
vn -0 0 -1
vn -0 0 -1
vn -0 0 -1
vn -2.3283066E-07 1 0
vn -2.3283066E-07 1 0
vn -2.3283066E-07 1 0
vn -2.3283066E-07 1 0
g tileT1aGeo_0
f 4/4/4 1/1/1 3/3/3
f 2/2/2 1/1/1 4/4/4
f 7/7/7 6/6/6 5/5/5
f 8/8/8 7/7/7 5/5/5
