g tileL1Geo
v 0.5 -0.5000012 0
v -0.50000006 -0.5000012 0
v 0.5 0.49999878 0
v -0.50000006 0.49999878 0
v -0.50000006 -0.5000012 0.14999999
v 0.5 0.49999878 0.14999999
v -0.50000006 0.49999878 0.14999999
v -0.50000006 0.49999878 0
v 0.5 0.49999878 0
v -0.50000006 0.49999878 0
v -0.50000006 0.49999878 0.14999999
v -0.50000006 0.49999878 0
v -0.50000006 -0.5000012 0
v 0.5 -0.5000012 0
vt 0.69111335 0.6422851
vt 0.5941876 0.63342226
vt 0.97558594 0.6422851
vt 0.97558594 0.35771483
vt 0.5941876 0.59291303
vt 0.63199615 0.59291303
vt 0.5941876 0.59291303
vt 0.5941876 0.63342226
vt 0.63199615 0.63342226
vt 0.63199615 0.63342226
vt 0.63199615 0.59291303
vt 0.3088867 0.024261713
vt 0.024229407 0.024261713
vt 0.024229407 0.3088867
vn -0 0 -1
vn -1 0 0
vn -0 0 -1
vn -0 0 -1
vn -1 0 0
vn -0 1 0
vn -0 1 0
vn -0 1 0
vn -0 1 0
vn -1 0 0
vn -1 0 0
vn -0 0 -1
vn -0 0 -1
vn -0 0 -1
g tileL1Geo_0
f 1/1/1 4/4/4 3/3/3
f 9/9/9 8/8/8 7/7/7
f 6/6/6 9/9/9 7/7/7
f 5/5/5 11/11/11 10/10/10
f 2/2/2 5/5/5 10/10/10
f 14/14/14 13/13/13 12/12/12
