g tileTGeo
v -0.5 -0.5 0
v 0.5 -0.5 0
v -0.5 0.5000003 0
v 0.5 0.5000003 0
v 0.5 0.5000003 0.14999999
v -0.5 0.5000003 0.14999999
v -0.5 0.5000003 0
v 0.5 0.5000003 0
vt 0.3088867 0.35771483
vt 0.3088867 0.6422851
vt 0.024414062 0.35771483
vt 0.024414062 0.6422851
vt 0.5941876 0.59291303
vt 0.63199615 0.59291303
vt 0.63199615 0.63342226
vt 0.5941876 0.63342226
vn -0 0 -1
vn -0 0 -1
vn -0 0 -1
vn -0 0 -1
vn -0 1 0
vn -0 1 0
vn -0 1 0
vn -0 1 0
g tileTGeo_0
f 4/4/4 1/1/1 3/3/3
f 2/2/2 1/1/1 4/4/4
f 7/7/7 6/6/6 5/5/5
f 8/8/8 7/7/7 5/5/5
