g tileT1bGeo
v -0.4999999 -0.5 0
v 0.5000001 -0.5 0
v -0.49999976 0.49999967 0
v 0.5000001 0.5000003 0
v 0.5000001 0.5000003 0.14999999
v -0.49999976 0.49999967 0.14999999
v -0.49999976 0.49999967 0
v 0.5000001 0.5000003 0
v 0.5000001 0.5000003 0
v -0.4999999 -0.5 0
vt 0.3088867 0.35771483
vt 0.35771483 0.024261713
vt 0.024414062 0.35771483
vt 0.024414062 0.6422851
vt 0.5941876 0.59291303
vt 0.63199615 0.59291303
vt 0.63199615 0.63342226
vt 0.5941876 0.63342226
vt 0.64343035 0.024261713
vt 0.35771483 0.30861512
vn -0 0 -1
vn -0 0 -1
vn -0 0 -1
vn -0 0 -1
vn -4.6566132E-07 1 0
vn -4.6566132E-07 1 0
vn -4.6566132E-07 1 0
vn -4.6566132E-07 1 0
vn -0 0 -1
vn -0 0 -1
g tileT1bGeo_0
f 4/4/4 1/1/1 3/3/3
f 7/7/7 6/6/6 5/5/5
f 8/8/8 7/7/7 5/5/5
f 2/2/2 10/10/10 9/9/9
