g tileJumpGeoActivated
v -0.5 0.5 0
v 0.5 0.5 0
v -0.5 -0.5 0
v 0.5 -0.5 0
v -0.5 0.5 0.14999999
v 0.5 0.5 0.14999999
v -0.5 -0.5 0.14999999
v 0.5 -0.5 0.14999999
v 0.5 -0.5 0
v 0.5 0.5 0
v 0.5 -0.5 0
v 0.5 -0.5 0.14999999
v -0.5 0.5 0
v -0.5 -0.5 0.14999999
v -0.5 -0.5 0
v -0.5 0.5 0.14999999
v -0.5 0.5 0
v 0.5 0.5 0
v 0.5 0.5 0.14999999
v 0.5 -0.5 0
v -0.5 0.5 0
v -0.5 -0.5 0
vt 0.024414062 0.97558594
vt 0.024414062 0.69111335
vt 0.27029073 0.9366834
vt 0.3088867 0.69111335
vt 0.27029073 0.8961742
vt 0.22978163 0.8961742
vt 0.27029073 0.8961742
vt 0.22978163 0.8961742
vt 0.22978163 0.9366834
vt 0.22978163 0.9366834
vt 0.27029085 0.9366834
vt 0.27029085 0.8961742
vt 0.27029073 0.9366834
vt 0.22978151 0.8961742
vt 0.22978151 0.9366834
vt 0.22978151 0.8961742
vt 0.22978151 0.9366834
vt 0.27029085 0.9366834
vt 0.27029085 0.8961742
vt 0.024414062 0.97558594
vt 0.3088867 0.69111335
vt 0.024414062 0.69111335
vn -0 0 -1
vn -0 0 -1
vn -2.2118914E-07 -1 0
vn -0 0 -1
vn -1 1.1920928E-07 0
vn 1 -1.1920928E-07 0
vn -2.2118914E-07 -1 0
vn -2.2118914E-07 -1 0
vn -2.2118914E-07 -1 0
vn 1 -1.1920928E-07 0
vn 1 -1.1920928E-07 0
vn 1 -1.1920928E-07 0
vn -1 1.1920928E-07 0
vn -1 1.1920928E-07 0
vn -1 1.1920928E-07 0
vn 2.2118914E-07 1 0
vn 2.2118914E-07 1 0
vn 2.2118914E-07 1 0
vn 2.2118914E-07 1 0
vn -0 0 -1
vn -0 0 -1
vn -0 0 -1
g tileJumpGeoActivated_0
f 1/1/1 2/2/2 4/4/4
f 8/8/8 7/7/7 3/3/3
f 9/9/9 8/8/8 3/3/3
f 11/11/11 10/10/10 6/6/6
f 12/12/12 11/11/11 6/6/6
f 14/14/14 5/5/5 13/13/13
f 15/15/15 14/14/14 13/13/13
f 18/18/18 17/17/17 16/16/16
f 19/19/19 18/18/18 16/16/16
f 22/22/22 21/21/21 20/20/20
