o tileGeo
v 0.500000 0.000000 0.499998
v -0.500000 0.000000 0.499998
v 0.500000 -0.000000 -0.500002
v -0.500000 -0.000000 -0.500002
v 0.500000 -0.150000 0.499998
v -0.500000 -0.150000 0.499998
v 0.500000 -0.150000 -0.500002
v -0.500000 -0.150000 -0.500002
v 0.500000 -0.000000 -0.500002
v 0.500000 0.000000 0.499998
v 0.500000 -0.000000 -0.500002
v 0.500000 -0.150000 -0.500002
v -0.500000 0.000000 0.499998
v -0.500000 -0.150000 -0.500002
v -0.500000 -0.000000 -0.500002
v 0.500000 -0.000000 -0.500002
v -0.500000 0.000000 0.499998
v -0.500000 -0.000000 -0.500002
v 0.500000 -0.000000 0.499998
v -0.500000 -0.150000 0.499998
v 0.500000 -0.150000 0.499998
v -0.500000 -0.000000 0.499998
vn -0.0000 1.0000 -0.0000
vn -0.0000 -0.0000 -1.0000
vn 1.0000 -0.0000 -0.0000
vn -1.0000 -0.0000 -0.0000
vn -0.0000 -0.0000 1.0000
vt 0.975585 0.975585
vt 0.975585 0.691113
vt 0.691111 0.975585
vt 0.631996 0.633422
vt 0.594188 0.592913
vt 0.631996 0.592913
vt 0.594188 0.592913
vt 0.631996 0.592913
vt 0.594188 0.633422
vt 0.594188 0.633422
vt 0.631996 0.633422
vt 0.631996 0.592913
vt 0.631996 0.633422
vt 0.594188 0.592913
vt 0.594188 0.633422
vt 0.975586 0.691113
vt 0.691113 0.975586
vt 0.975586 0.975586
vt 0.631996 0.633422
vt 0.594188 0.592913
vt 0.631996 0.592913
vt 0.594188 0.633422
s 0
f 2/2/1 1/1/1 3/3/1
f 7/7/2 8/8/2 4/4/2
f 9/9/2 7/7/2 4/4/2
f 11/11/3 10/10/3 5/5/3
f 12/12/3 11/11/3 5/5/3
f 14/14/4 6/6/4 13/13/4
f 15/15/4 14/14/4 13/13/4
f 18/18/1 17/17/1 16/16/1
f 20/20/5 21/21/5 19/19/5
f 22/22/5 20/20/5 19/19/5
