g tileIGeo
v 0.5 0.5000012 0
v -0.5 0.5000012 0
v 0.5 -0.49999878 0
v -0.5 -0.49999878 0
v -0.5 -0.49999878 0.14999999
v 0.5 -0.49999878 0.14999999
v -0.5 0.5000012 0.14999999
v 0.5 0.5000012 0.14999999
v 0.5 -0.49999878 0
v -0.5 -0.49999878 0
v 0.5 0.5000012 0
v -0.5 -0.49999878 0
v 0.5 0.5000012 0
v -0.5 0.5000012 0
vt 0.6911133 0.64228517
vt 0.63199615 0.63342226
vt 0.97558594 0.64228517
vt 0.97558594 0.35771483
vt 0.5941876 0.59291303
vt 0.63199615 0.59291303
vt 0.63199615 0.59291303
vt 0.5941876 0.59291303
vt 0.63199615 0.63342226
vt 0.5941876 0.63342226
vt 0.5941876 0.63342226
vt 0.69111323 0.6422851
vt 0.97558594 0.35771483
vt 0.97558594 0.6422851
vn -0 0 -1
vn -0 1 0
vn -0 0 -1
vn -0 0 -1
vn -0 -1 0
vn -0 -1 0
vn -0 1 0
vn -0 1 0
vn -0 -1 0
vn -0 -1 0
vn -0 1 0
vn -0 0 -1
vn -0 0 -1
vn -0 0 -1
g tileIGeo_0
f 4/4/4 1/1/1 3/3/3
f 9/9/9 6/6/6 5/5/5
f 10/10/10 9/9/9 5/5/5
f 2/2/2 7/7/7 8/8/8
f 11/11/11 2/2/2 8/8/8
f 14/14/14 13/13/13 12/12/12
